<?xml version="1.0" encoding="UTF-8"?>
<svg width="61px" height="17px" viewBox="0 0 61 17" version="1.1" xmlns="http://www.w3.org/2000/svg" xmlns:xlink="http://www.w3.org/1999/xlink">
    <!-- Generator: Sketch 63.1 (92452) - https://sketch.com -->
    <title>Create</title>
    <desc>Created with Sketch.</desc>
    <g id="Page-1" stroke="none" stroke-width="1" fill="none" fill-rule="evenodd">
        <g id="Logo" transform="translate(-429.000000, -61.000000)" fill="#FFFFFF" fill-rule="nonzero">
            <g id="Group-2" transform="translate(420.000000, 57.000000)">
                <g id="logo">
                    <g id="Group" transform="translate(9.535135, 1.589189)">
                        <path d="M5.90871053,18.5467287 C4.86675969,18.5467287 3.90495891,18.2944187 3.0233082,17.7897987 C2.1576875,17.2851788 1.46839694,16.5933611 0.955436528,15.7143457 C0.44247451,14.8353303 0.185994303,13.8423685 0.185994303,12.7354602 C0.185994303,11.7099422 0.44247451,10.7658146 0.955436528,9.90307722 C1.46839694,9.02406182 2.16570251,8.32410512 3.04735322,7.8032071 C3.94503395,7.28230909 4.93087974,7.02186008 6.00489061,7.02186008 C6.90257134,7.02186008 7.67201196,7.16836265 8.31321248,7.46136778 C8.954413,7.75437291 9.5795835,8.21015867 10.188724,8.82872507 L10.188724,10.1472482 C9.65973357,9.34962308 9.06662309,8.74733475 8.40939256,8.34038318 C7.76819204,7.91715354 6.96669139,7.70553872 6.00489061,7.70553872 C5.1232399,7.70553872 4.28967922,7.94157064 3.50420859,8.41363446 C2.73476797,8.86942022 2.11761247,9.48798662 1.65274209,10.2693336 C1.18787172,11.0506807 0.955436528,11.8890009 0.955436528,12.7842944 C0.955436528,13.7609781 1.17985671,14.6399935 1.62869707,15.4213406 C2.07753744,16.1864095 2.67866292,16.7886979 3.43207353,17.2282056 C4.20151415,17.6514352 5.02705982,17.86305 5.90871053,17.86305 C7.70407199,17.86305 9.13074314,17.0410078 10.188724,15.3969235 L10.188724,16.7154466 C9.61164353,17.334013 8.97044301,17.7979378 8.26512244,18.107221 C7.57583188,18.4002261 6.79036125,18.5467287 5.90871053,18.5467287 Z M12.3170769,7.24161393 L13.0865175,7.24161393 L13.0865175,9.78099175 C13.4071178,8.98336667 13.8719882,8.35666124 14.4811287,7.90087548 C15.1062992,7.44508972 15.8115877,7.21719683 16.5970583,7.21719683 C17.0939887,7.21719683 17.5989341,7.32300424 18.1118945,7.53461906 L18.1118945,8.43805156 C17.6470242,8.07993417 17.1260487,7.90087548 16.5489683,7.90087548 C15.9718878,7.90087548 15.4108373,8.07993417 14.865849,8.43805156 C14.3368585,8.79616894 13.9040482,9.2763718 13.5674179,9.87866013 C13.2468177,10.4809485 13.0865175,11.1239319 13.0865175,11.8076106 L13.0865175,18.2293064 L12.3170769,18.2293064 L12.3170769,7.24161393 Z M24.5569215,17.8386329 C25.3904822,17.8386329 26.1839679,17.6188791 26.9373785,17.1793714 C27.6907891,16.7398637 28.3159596,16.1375753 28.81289,15.3725064 L28.81289,16.6177782 C28.2197795,17.2851788 27.570564,17.7735207 26.8652434,18.0828039 C26.1599228,18.375809 25.3584222,18.5223116 24.4607415,18.5223116 C23.4668807,18.5223116 22.5291249,18.2537235 21.6474742,17.7165474 C20.7818535,17.1793714 20.0845479,16.4631366 19.5555575,15.5678431 C19.0425971,14.6725497 18.7861169,13.720283 18.7861169,12.7110431 C18.7861169,11.6204129 19.0425971,10.6437291 19.5555575,9.78099175 C20.0685179,8.90197635 20.7658235,8.21829771 21.6474742,7.72995582 C22.5451549,7.24161393 23.5390157,6.99744298 24.6290566,6.99744298 C26.296178,6.99744298 27.7148341,7.66484357 28.885025,8.99964473 L21.3348889,16.568944 C21.8638794,17.0084517 22.3768398,17.334013 22.8737702,17.5456278 C23.3707006,17.7409645 23.931751,17.8386329 24.5569215,17.8386329 Z M19.5555575,12.6377918 C19.5555575,13.988871 19.9963829,15.1446135 20.8780336,16.1050192 L27.9232243,8.99964473 C27.3942338,8.5275809 26.8812734,8.19388061 26.384343,7.99854386 C25.8874126,7.78692904 25.2943021,7.68112163 24.6050116,7.68112163 C23.6271808,7.68112163 22.7535451,7.90087548 21.9841045,8.34038318 C21.2306939,8.76361282 20.6375834,9.34962308 20.204773,10.098414 C19.7719627,10.8472049 19.5555575,11.6936641 19.5555575,12.6377918 Z M55.489539,17.7328255 C56.3230997,17.7328255 57.1165853,17.5130717 57.869996,17.073564 C58.6234066,16.6340563 59.2485771,16.0317679 59.7455075,15.266699 L59.7455075,16.5119708 C59.152397,17.1793714 58.5031815,17.6677133 57.7978609,17.9769965 C57.0925403,18.2700016 56.2910397,18.4165042 55.393359,18.4165042 C54.3994981,18.4165042 53.4617424,18.1479161 52.5800917,17.61074 C51.714471,17.073564 51.0171654,16.3573292 50.488175,15.4620357 C49.9752146,14.5667423 49.7187344,13.6144756 49.7187344,12.6052357 C49.7187344,11.5146055 49.9752146,10.5379217 50.488175,9.67518434 C51.0011354,8.79616894 51.698441,8.1124903 52.5800917,7.62414841 C53.4777724,7.13580652 54.4716332,6.89163557 55.5616741,6.89163557 C57.2287954,6.89163557 58.6474516,7.55903616 59.8176425,8.89383732 L52.2675064,16.4631366 C52.7964969,16.9026443 53.3094573,17.2282056 53.8063877,17.4398204 C54.3033181,17.6351571 54.8643685,17.7328255 55.489539,17.7328255 Z M50.488175,12.5319844 C50.488175,13.8830636 50.9290003,15.0388061 51.8106511,15.9992118 L58.8558418,8.89383732 C58.3268513,8.42177349 57.8138909,8.0880732 57.3169605,7.89273645 C56.8200301,7.68112163 56.2269196,7.57531422 55.5376291,7.57531422 C54.5597983,7.57531422 53.6861626,7.79506807 52.916722,8.23457577 C52.1633113,8.65780541 51.5702009,9.24381567 51.1373905,9.99260657 C50.7045802,10.7413975 50.488175,11.5878567 50.488175,12.5319844 Z M36.3877123,18.4978945 C35.3617915,18.4978945 34.4080057,18.2374455 33.526355,17.7165474 C32.6447043,17.1956494 31.9473987,16.4956927 31.4344383,15.6166773 C30.9214779,14.7213839 30.6649977,13.7609781 30.6649977,12.7354602 C30.6649977,11.7099422 30.9214779,10.7576755 31.4344383,9.87866013 C31.9473987,8.98336667 32.6447043,8.27527093 33.526355,7.75437291 C34.4080057,7.2334749 35.3617915,6.97302589 36.3877123,6.97302589 C37.4296632,6.97302589 38.415509,7.25789199 39.3452497,7.8276242 C40.2749905,8.38107834 40.924206,9.10545214 41.2928963,10.0007456 L41.2928963,7.24161393 L42.0623369,7.24161393 L42.0623369,18.2293064 L41.2928963,18.2293064 L41.2928963,15.4945918 C40.8600859,16.4061634 40.1868254,17.1386762 39.2731146,17.6921303 C38.3754339,18.2293064 37.4136331,18.4978945 36.3877123,18.4978945 Z M36.4358024,17.8142158 C37.3174531,17.8142158 38.1349837,17.5863229 38.8883943,17.1305372 C39.6418049,16.6584734 40.2349154,16.039907 40.6677258,15.274838 C41.1165661,14.493491 41.3409863,13.6470317 41.3409863,12.7354602 C41.3409863,11.8401667 41.1165661,11.0018465 40.6677258,10.2204995 C40.2188854,9.43915243 39.6177599,8.82058604 38.8643493,8.36480027 C38.1109387,7.89273645 37.293408,7.65670453 36.4117573,7.65670453 C35.5301066,7.65670453 34.704561,7.89273645 33.9351203,8.36480027 C33.1817097,8.8368641 32.5725692,9.46356952 32.1076989,10.2449165 C31.6588585,11.0262636 31.4344383,11.8645838 31.4344383,12.7598773 C31.4344383,13.6551707 31.6588585,14.493491 32.1076989,15.274838 C32.5725692,16.039907 33.1897247,16.6584734 33.9591654,17.1305372 C34.728606,17.5863229 35.5541516,17.8142158 36.4358024,17.8142158 Z M48.9683871,18.375809 C47.7821661,18.375809 46.7963203,18.0095526 46.0108497,17.2770397 C45.2414091,16.5445269 44.8566888,15.535287 44.8566888,14.24932 L44.8566888,2.82211983 L45.6261294,2.82211983 L45.6261294,7.24161393 L48.9443421,7.24161393 L48.9443421,7.92529257 L45.6261294,7.92529257 L45.6261294,14.24932 C45.6261294,15.3236722 45.9387146,16.1701315 46.5638851,16.7886979 C47.2050857,17.3909862 48.0065863,17.6921303 48.9683871,17.6921303 L48.9683871,18.375809 Z" id="Create"></path>
                    </g>
                </g>
            </g>
        </g>
    </g>
</svg>