<?xml version="1.0" encoding="UTF-8"?>
<svg width="790px" height="111px" viewBox="0 0 790 111" version="1.1" xmlns="http://www.w3.org/2000/svg" xmlns:xlink="http://www.w3.org/1999/xlink">
    <!-- Generator: Sketch 63.1 (92452) - https://sketch.com -->
    <title>Logo</title>
    <desc>Created with Sketch.</desc>
    <g id="Logo" stroke="none" stroke-width="1" fill="none" fill-rule="evenodd">
        <rect id="Rectangle" fill="#F5AA0D" x="0" y="-219" width="395" height="591"></rect>
        <g id="Group-2" transform="translate(36.000000, 0.000000)">
            <g id="logo">
                <rect id="Rectangle" fill="#F5AA0D" x="0" y="0" width="359" height="112"></rect>
                <rect id="Rectangle" fill="#FFFFFF" x="360" y="0" width="394" height="112"></rect>
                <g id="Group" transform="translate(49.000000, 9.000000)" fill-rule="nonzero">
                    <path d="M30.3205676,94.3577236 C24.9737934,94.3577236 20.0383096,93.0740797 15.514116,90.5067919 C11.0721805,87.9395041 7.53508377,84.4198354 4.9028257,79.9477857 C2.27055941,75.475736 0.95443038,70.4239762 0.95443038,64.7925062 C0.95443038,59.5751149 2.27055941,54.7718023 4.9028257,50.3825683 C7.53508377,45.9105186 11.1133096,42.349442 15.6375031,39.6993385 C20.2439547,37.049235 25.3028257,35.7241832 30.814116,35.7241832 C35.4205676,35.7241832 39.3689547,36.4695248 42.6592773,37.960208 C45.9495999,39.4508913 49.1576644,41.7697319 52.2834709,44.9167298 L52.2834709,51.6248043 C49.5689547,47.5668333 46.5254063,44.5026511 43.1528257,42.4322577 C39.8625031,40.2790486 35.7495999,39.2024441 30.814116,39.2024441 C26.2899225,39.2024441 22.0125031,40.4032722 17.981858,42.8049285 C14.0334709,45.1237691 10.8665354,48.2707671 8.48105151,52.2459223 C6.09556764,56.2210776 4.9028257,60.486088 4.9028257,65.0409534 C4.9028257,70.0098975 6.05443861,74.4819472 8.35766441,78.4571025 C10.6608902,82.349442 13.7455676,85.4136242 17.6116967,87.649649 C21.5600838,89.8028582 25.7963741,90.8794627 30.3205676,90.8794627 C39.5334709,90.8794627 46.8544386,86.6972681 52.2834709,78.3328789 L52.2834709,85.0409534 C49.3221805,88.1879513 46.031858,90.5481998 42.4125031,92.1216987 C38.8754063,93.612382 34.8447612,94.3577236 30.3205676,94.3577236 Z M63.2051209,36.8421956 L67.153508,36.8421956 L67.153508,49.7614503 C68.7986693,45.7034793 71.1841531,42.5150735 74.3099596,40.1962329 C77.5180241,37.8773923 81.1372144,36.717972 85.1678596,36.717972 C87.7178596,36.717972 90.3089886,37.2562743 92.9412467,38.3328789 L92.9412467,42.9291521 C90.5557628,41.107206 87.8823757,40.1962329 84.9210854,40.1962329 C81.9597951,40.1962329 79.0807628,41.107206 76.2841531,42.9291521 C73.569637,44.7510983 71.3486693,47.1941625 69.6212499,50.2583447 C67.9760886,53.3225269 67.153508,56.5937484 67.153508,60.0720093 L67.153508,92.7428167 L63.2051209,92.7428167 L63.2051209,36.8421956 Z M126.013924,90.7552391 C130.291343,90.7552391 134.363118,89.6372267 138.229247,87.4012018 C142.095376,85.165177 145.30344,82.1009948 147.85344,78.2086553 L147.85344,84.544059 C144.809892,87.9395041 141.47844,90.4239762 137.859085,91.9974751 C134.239731,93.4881584 130.126827,94.2335 125.520376,94.2335 C120.420376,94.2335 115.608279,92.8670403 111.084085,90.1341211 C106.64215,87.4012018 103.063924,83.7573095 100.349408,79.2024441 C97.7171499,74.6475786 96.4010209,69.8028582 96.4010209,64.6682826 C96.4010209,59.1196283 97.7171499,54.1506842 100.349408,49.7614503 C102.981666,45.2894006 106.559892,41.8111397 111.084085,39.3266677 C115.690537,36.8421956 120.790537,35.5999596 126.384085,35.5999596 C134.938924,35.5999596 142.218763,38.9954047 148.223602,45.786295 L109.480053,84.2956118 C112.194569,86.5316366 114.826827,88.1879513 117.376827,89.2645559 C119.926827,90.2583447 122.80586,90.7552391 126.013924,90.7552391 Z M100.349408,64.2956118 C100.349408,71.1693178 102.611505,77.049235 107.135698,81.9353633 L143.288118,45.786295 C140.573602,43.3846387 137.941343,41.6869161 135.391343,40.6931273 C132.841343,39.6165227 129.797795,39.0782205 126.260698,39.0782205 C121.242956,39.0782205 116.759892,40.1962329 112.811505,42.4322577 C108.945376,44.5854668 105.901827,47.5668333 103.68086,51.3763571 C101.459892,55.1858809 100.349408,59.4922991 100.349408,64.2956118 Z M284.744753,90.2169368 C289.022172,90.2169368 293.093947,89.0989244 296.960076,86.8628996 C300.826205,84.6268747 304.034269,81.5626925 306.584269,77.670353 L306.584269,84.0057567 C303.540721,87.4012018 300.209269,89.8856739 296.589914,91.4591729 C292.970559,92.9498561 288.857656,93.6951977 284.251205,93.6951977 C279.151205,93.6951977 274.339108,92.3287381 269.814914,89.5958188 C265.372979,86.8628996 261.794753,83.2190072 259.080237,78.6641418 C256.447979,74.1092764 255.13185,69.2645559 255.13185,64.1299803 C255.13185,58.5813261 256.447979,53.612382 259.080237,49.223148 C261.712495,44.7510983 265.290721,41.2728374 269.814914,38.7883654 C274.421366,36.3038933 279.521366,35.0616573 285.114914,35.0616573 C293.669753,35.0616573 300.949592,38.4571025 306.95443,45.2479927 L268.210882,83.7573095 C270.925398,85.9933343 273.557656,87.649649 276.107656,88.7262536 C278.657656,89.7200424 281.536688,90.2169368 284.744753,90.2169368 Z M259.080237,63.7573095 C259.080237,70.6310155 261.342334,76.5109327 265.866527,81.3970611 L302.018947,45.2479927 C299.30443,42.8463364 296.672172,41.1486138 294.122172,40.154825 C291.572172,39.0782205 288.528624,38.5399182 284.991527,38.5399182 C279.973785,38.5399182 275.490721,39.6579306 271.542334,41.8939555 C267.676205,44.0471646 264.632656,47.028531 262.411688,50.8380548 C260.190721,54.6475786 259.080237,58.9539969 259.080237,63.7573095 Z M186.723666,94.1092764 C181.45915,94.1092764 176.564795,92.7842246 172.040602,90.1341211 C167.516408,87.4840176 163.938182,83.922941 161.305924,79.4508913 C158.673666,74.8960259 157.357537,70.0098975 157.357537,64.7925062 C157.357537,59.5751149 158.673666,54.7303944 161.305924,50.2583447 C163.938182,45.7034793 167.516408,42.1009948 172.040602,39.4508913 C176.564795,36.8007878 181.45915,35.475736 186.723666,35.475736 C192.07044,35.475736 197.129311,36.9250114 201.900279,39.8235621 C206.671247,42.6392971 210.002698,46.3245973 211.894634,50.8794627 L211.894634,36.8421956 L215.843021,36.8421956 L215.843021,92.7428167 L211.894634,92.7428167 L211.894634,78.8297733 C209.673666,83.4674544 206.218827,87.1941625 201.530118,90.0098975 C196.923666,92.7428167 191.988182,94.1092764 186.723666,94.1092764 Z M186.97044,90.6310155 C191.494634,90.6310155 195.689795,89.4715952 199.555924,87.1527546 C203.422053,84.7510983 206.465602,81.6041004 208.686569,77.7117608 C210.989795,73.7366056 212.141408,69.4301873 212.141408,64.7925062 C212.141408,60.2376408 210.989795,55.9726304 208.686569,51.9974751 C206.383343,48.0223199 203.298666,44.8753219 199.432537,42.5564813 C195.566408,40.154825 191.371247,38.9539969 186.847053,38.9539969 C182.32286,38.9539969 178.086569,40.154825 174.138182,42.5564813 C170.272053,44.9581377 167.146247,48.1465435 164.760763,52.1216987 C162.457537,56.096854 161.305924,60.3618644 161.305924,64.9167298 C161.305924,69.4715952 162.457537,73.7366056 164.760763,77.7117608 C167.146247,81.6041004 170.313182,84.7510983 174.261569,87.1527546 C178.209956,89.4715952 182.446247,90.6310155 186.97044,90.6310155 Z M251.28144,93.4881584 C245.194343,93.4881584 240.135472,91.6248043 236.104827,87.8980962 C232.15644,84.1713882 230.182247,79.0368126 230.182247,72.4943695 L230.182247,14.3577236 L234.130634,14.3577236 L234.130634,36.8421956 L251.158053,36.8421956 L251.158053,40.3204565 L234.130634,40.3204565 L234.130634,72.4943695 C234.130634,77.960208 235.734666,82.2666263 238.942731,85.4136242 C242.233053,88.4778064 246.345956,90.0098975 251.28144,90.0098975 L251.28144,93.4881584 Z" id="Create" fill="#FFFFFF"></path>
                    <path d="M340.36587,94.234364 C335.010846,94.234364 330.067747,92.9185285 325.536573,90.2868574 C321.087783,87.6551864 317.545229,84.1188784 314.90891,79.6779336 C312.27259,75.2369887 310.95443,70.3848452 310.95443,65.1215031 C310.95443,59.858161 312.27259,55.0060175 314.90891,50.5650727 C317.545229,46.1241278 321.087783,42.5878198 325.536573,39.9561488 C330.067747,37.3244777 335.010846,36.0086422 340.36587,36.0086422 C345.556124,36.0086422 350.499223,37.4067175 355.195167,40.2028679 C359.891111,42.9167787 363.35128,46.4942065 365.575675,50.9351514 L365.575675,0.357723577 L369.530154,0.357723577 L369.530154,92.8774086 L365.575675,92.8774086 L365.575675,79.4312144 C363.104125,83.8721593 359.520378,87.4495871 354.824434,90.1634979 C350.210875,92.8774086 345.391354,94.234364 340.36587,94.234364 Z M340.242292,90.7802958 C344.773466,90.7802958 348.9751,89.6289397 352.847195,87.3262275 C356.801674,84.9412756 359.932303,81.8161663 362.239083,77.9508994 C364.628247,74.0033929 365.82283,69.7680473 365.82283,65.2448627 C365.82283,60.7216781 364.628247,56.4863325 362.239083,52.5388259 C359.932303,48.5913194 356.801674,45.4250902 352.847195,43.0401383 C348.9751,40.6551864 344.773466,39.4627105 340.242292,39.4627105 C335.711118,39.4627105 331.509484,40.6551864 327.63739,43.0401383 C323.765295,45.3428504 320.675858,48.4679598 318.369079,52.4154664 C316.062299,56.3629729 314.90891,60.5983185 314.90891,65.1215031 C314.90891,69.7269274 316.021107,74.0033929 318.245501,77.9508994 C320.552281,81.8161663 323.641718,84.9412756 327.513812,87.3262275 C331.468291,89.6289397 335.711118,90.7802958 340.242292,90.7802958 Z M429.986727,94.234364 L417.381824,67.3419755 L404.653344,94.234364 L377.960609,37.3655976 L382.038666,37.3655976 L404.776921,85.5991934 L415.528162,63.0243902 L403.664724,37.6123168 L407.619203,37.6123168 L417.505401,59.0768837 L427.638754,37.3655976 L431.593234,37.3655976 L419.482641,63.1477498 L429.986727,85.722553 L452.35425,37.4889572 L456.308729,37.4889572 L429.986727,94.234364 Z M489.306386,90.9036553 C493.590406,90.9036553 497.668462,89.7934191 501.540557,87.5729467 C505.412651,85.3524742 508.625665,82.3096046 511.1796,78.4443378 L511.1796,84.7356763 C508.131355,88.1075049 504.794763,90.5746965 501.169824,92.1372511 C497.544885,93.6175661 493.425636,94.3577236 488.812077,94.3577236 C483.704208,94.3577236 478.884686,93.0007682 474.353512,90.2868574 C469.904723,87.5729467 466.320976,83.954399 463.602271,79.4312144 C460.965952,74.9080298 459.647792,70.0970062 459.647792,64.9981435 C459.647792,59.4880823 460.965952,54.5536991 463.602271,50.1949939 C466.238591,45.754049 469.822338,42.2999808 474.353512,39.8327892 C478.967071,37.3655976 484.07494,36.1320018 489.677119,36.1320018 C498.245157,36.1320018 505.536228,39.5038303 511.550332,46.2474874 L472.747005,84.4889572 C475.465709,86.7094296 478.102029,88.354224 480.655963,89.4233404 C483.209898,90.410217 486.093372,90.9036553 489.306386,90.9036553 Z M463.602271,64.6280648 C463.602271,71.4539615 465.867859,77.2929817 470.399033,82.1451252 L506.607233,46.2474874 C503.888529,43.8625355 501.252209,42.1766212 498.698275,41.1897446 C496.14434,40.1206282 493.096096,39.58607 489.553541,39.58607 C484.528057,39.58607 480.038076,40.6963063 476.083597,42.9167787 C472.211502,45.0550114 469.163258,48.0156413 466.938863,51.7986685 C464.714469,55.5816956 463.602271,59.858161 463.602271,64.6280648 Z M545.043123,93.9876448 C541.171029,93.9876448 537.628475,93.1241278 534.41546,91.3970937 C531.202446,89.5878198 528.648512,87.0795084 526.753657,83.8721593 C524.858802,80.6648102 523.911375,77.0873824 523.911375,73.1398758 L523.911375,0.357723577 L527.865854,0.357723577 L527.865854,73.1398758 C527.865854,76.4294646 528.607319,79.3900945 530.090249,82.0217656 C531.655563,84.6534366 533.756381,86.7505495 536.3927,88.3131042 C539.02902,89.7934191 541.912494,90.5335766 545.043123,90.5335766 L545.043123,93.9876448 Z M578.95443,93.9876448 C575.082336,93.9876448 571.539782,93.1241278 568.326767,91.3970937 C565.113753,89.5878198 562.559819,87.0795084 560.664964,83.8721593 C558.770109,80.6648102 557.822682,77.0873824 557.822682,73.1398758 L557.822682,0.357723577 L561.777161,0.357723577 L561.777161,73.1398758 C561.777161,76.4294646 562.518626,79.3900945 564.001556,82.0217656 C565.566871,84.6534366 567.667688,86.7505495 570.304007,88.3131042 C572.940327,89.7934191 575.823801,90.5335766 578.95443,90.5335766 L578.95443,93.9876448 Z" id="Dwell" fill="#F5AA0D"></path>
                </g>
            </g>
        </g>
    </g>
</svg>