<svg height="125" viewBox="0 0 790 125" width="790" xmlns="http://www.w3.org/2000/svg"><g fill="none" fill-rule="evenodd"><path d="m0 0h422v125h-422z" fill="#f5aa0d"/><g fill-rule="nonzero" transform="translate(42 4)"><path d="m35.70001 116.6c-6.5 0-12.5-1.55-18-4.65-5.4-3.1-9.70001-7.35-12.9-12.75-3.20001-5.4-4.80001-11.5-4.80001-18.3 0-6.3 1.6-12.1 4.80001-17.4 3.19999-5.4 7.55-9.7 13.05-12.9 5.6-3.2 11.75-4.8 18.45-4.8 5.6 0 10.4.9 14.4 2.7s7.9 4.6 11.7 8.4v8.1c-3.3-4.9-7-8.6-11.1-11.1-4-2.6-9-3.9-15-3.9-5.5 0-10.7 1.45-15.6 4.35-4.8 2.8-8.65 6.6-11.55 11.4s-4.35 9.95-4.35 15.45c0 6 1.4 11.4 4.19999 16.2 2.80001 4.7 6.55001 8.4 11.25001 11.1 4.8 2.6 9.95 3.9 15.45 3.9 11.2 0 20.1-5.05 26.7-15.15v8.1c-3.6 3.8-7.6 6.65-12 8.55-4.3 1.8-9.2 2.7-14.7 2.7zm39.9773-69.45h4.8v15.6c2-4.9 4.9-8.75 8.7-11.55 3.9-2.8 8.2998-4.2 13.1998-4.2 3.1 0 6.25.65 9.45 1.95v5.55c-2.9-2.2-6.15-3.3-9.75-3.3s-7.1 1.1-10.4998 3.3c-3.3 2.2-6 5.15-8.1 8.85-2 3.7-3 7.65-3 11.85v39.45h-4.8zm76.3558 65.1c5.2 0 10.15-1.35 14.85-4.05s8.6-6.4 11.7-11.1v7.65c-3.7 4.1-7.75 7.1-12.15 9-4.4 1.8-9.4 2.7-15 2.7-6.2 0-12.05-1.65-17.55-4.95-5.4-3.3-9.75-7.7-13.05-13.2-3.2-5.5-4.8-11.35-4.8-17.55 0-6.7 1.6-12.7 4.8-18 3.2-5.4 7.55-9.6 13.05-12.6 5.6-3 11.8-4.5 18.6-4.5 10.4 0 19.25 4.1 26.55 12.3l-47.1 46.5c3.3 2.7 6.5 4.7 9.6 6 3.1 1.2 6.6 1.8 10.5 1.8zm-31.2-31.95c0 8.3 2.75 15.4 8.25 21.3l43.95-43.65c-3.3-2.9-6.5-4.95-9.6-6.15-3.1-1.3-6.8-1.95-11.1-1.95-6.1 0-11.55 1.35-16.35 4.05-4.7 2.6-8.4 6.2-11.1 10.8s-4.05 9.8-4.05 15.6zm105.004 36c-6.4 0-12.35-1.6-17.85-4.8s-9.85-7.5-13.05-12.9c-3.2-5.5-4.8-11.4-4.8-17.7s1.6-12.15 4.8-17.55c3.2-5.5 7.55-9.85 13.05-13.05s11.45-4.8 17.85-4.8c6.5 0 12.65 1.75 18.45 5.25 5.8 3.4 9.85 7.85 12.15 13.35v-16.95h4.8v67.5h-4.8v-16.8c-2.7 5.6-6.9 10.1-12.6 13.5-5.6 3.3-11.6 4.95-18 4.95zm.3-4.2c5.5 0 10.6-1.4 15.3-4.2 4.7-2.9 8.4-6.7 11.1-11.4 2.8-4.8 4.2-10 4.2-15.6 0-5.5-1.4-10.65-4.2-15.45s-6.55-8.6-11.25-11.4c-4.7-2.9-9.8-4.35-15.3-4.35s-10.65 1.45-15.45 4.35c-4.7 2.9-8.5 6.75-11.4 11.55-2.8 4.8-4.2 9.95-4.2 15.45s1.4 10.65 4.2 15.45c2.9 4.7 6.75 8.5 11.55 11.4 4.8 2.8 9.95 4.2 15.45 4.2zm78.182 3.45c-7.4 0-13.55-2.25-18.45-6.75-4.8-4.5-7.2-10.7-7.2-18.6v-70.2h4.8v27.15h20.7v4.2h-20.7v38.85c0 6.6 1.95 11.8 5.85 15.6 4 3.7 9 5.55 15 5.55z" fill="#fff"/><path d="m415.75 114.65c-6.5 0-12.5-1.6-18-4.8-5.4-3.2-9.7-7.5-12.9-12.9s-4.8-11.3-4.8-17.7 1.6-12.3 4.8-17.7 7.5-9.7 12.9-12.9c5.5-3.2 11.5-4.8 18-4.8 6.3 0 12.3 1.7 18 5.1 5.7 3.3 9.9 7.65 12.6 13.05v-61.5h4.8v112.5h-4.8v-16.35c-3 5.4-7.35 9.75-13.05 13.05-5.6 3.3-11.45 4.95-17.55 4.95zm-.15-4.2c5.5 0 10.6-1.4 15.3-4.2 4.8-2.9 8.6-6.7 11.4-11.4 2.9-4.8 4.35-9.95 4.35-15.45s-1.45-10.65-4.35-15.45c-2.8-4.8-6.6-8.65-11.4-11.55-4.7-2.9-9.8-4.35-15.3-4.35s-10.6 1.45-15.3 4.35c-4.7 2.8-8.45 6.6-11.25 11.4s-4.2 9.95-4.2 15.45c0 5.6 1.35 10.8 4.05 15.6 2.8 4.7 6.55 8.5 11.25 11.4 4.8 2.8 9.95 4.2 15.45 4.2zm108.933 4.2-15.3-32.7-15.45 32.7-32.4-69.15h4.95l27.6 58.65 13.05-27.45-14.4-30.9h4.8l12 26.1 12.3-26.4h4.8l-14.7 31.35 12.75 27.45 27.15-58.65h4.8zm72.003-4.05c5.2 0 10.15-1.35 14.85-4.05s8.6-6.4 11.7-11.1v7.65c-3.7 4.1-7.75 7.1-12.15 9-4.4 1.8-9.4 2.7-15 2.7-6.2 0-12.05-1.65-17.55-4.95-5.4-3.3-9.75-7.7-13.05-13.2-3.2-5.5-4.8-11.35-4.8-17.55 0-6.7 1.6-12.7 4.8-18 3.2-5.4 7.55-9.6 13.05-12.6 5.6-3 11.8-4.5 18.6-4.5 10.4 0 19.25 4.1 26.55 12.3l-47.1 46.5c3.3 2.7 6.5 4.7 9.6 6 3.1 1.2 6.6 1.8 10.5 1.8zm-31.2-31.95c0 8.3 2.75 15.4 8.25 21.3l43.95-43.65c-3.3-2.9-6.5-4.95-9.6-6.15-3.1-1.3-6.8-1.95-11.1-1.95-6.1 0-11.55 1.35-16.35 4.05-4.7 2.6-8.4 6.2-11.1 10.8s-4.05 9.8-4.05 15.6zm98.854 35.7c-4.7 0-9-1.05-12.9-3.15-3.9-2.2-7-5.25-9.3-9.15s-3.45-8.25-3.45-13.05v-88.5h4.8v88.5c0 4 .9 7.6 2.7 10.8 1.9 3.2 4.45 5.75 7.65 7.65 3.2 1.8 6.7 2.7 10.5 2.7zm41.162 0c-4.7 0-9-1.05-12.9-3.15-3.9-2.2-7-5.25-9.3-9.15s-3.45-8.25-3.45-13.05v-88.5h4.8v88.5c0 4 .9 7.6 2.7 10.8 1.9 3.2 4.45 5.75 7.65 7.65 3.2 1.8 6.7 2.7 10.5 2.7z" fill="#f5aa0d"/><circle cx="418.5" cy="79.5" fill="#f5aa0d" r="35.5"/><circle cx="344.5" cy="80.5" fill="#fff" r="35.5"/></g></g></svg>