<?xml version="1.0" encoding="UTF-8"?>
<svg width="126px" height="19px" viewBox="0 0 126 19" version="1.1" xmlns="http://www.w3.org/2000/svg" xmlns:xlink="http://www.w3.org/1999/xlink">
    <!-- Generator: Sketch 63.1 (92452) - https://sketch.com -->
    <title>Group</title>
    <desc>Created with Sketch.</desc>
    <g id="Page-1" stroke="none" stroke-width="1" fill="none" fill-rule="evenodd">
        <g id="Logo" transform="translate(-10.000000, 0.000000)" fill-rule="nonzero">
            <g id="Group-2" transform="translate(0.000000, -1.000000)">
                <g id="logo">
                    <g id="Group" transform="translate(9.535135, 0.589189)">
                        <path d="M6.22293099,19.2325524 C5.1745439,19.2325524 4.20680196,18.9786839 3.31970519,18.4709468 C2.44873745,17.9632098 1.75518906,17.2671187 1.23906003,16.3826735 C0.722929381,15.4982283 0.464864865,14.4991328 0.464864865,13.385387 C0.464864865,12.3535343 0.722929381,11.4035747 1.23906003,10.5355081 C1.75518906,9.65106293 2.45680196,8.94678251 3.34389874,8.42266684 C4.24712454,7.89855118 5.23906003,7.63649335 6.31970519,7.63649335 C7.22293099,7.63649335 7.99712454,7.78390088 8.64228583,8.07871594 C9.28744712,8.373531 9.91647938,8.83213221 10.5293826,9.45451956 L10.5293826,10.7811873 C9.99712454,9.97863522 9.40035035,9.37262648 8.73906003,8.96316112 C8.09389874,8.53731715 7.28744712,8.32439516 6.31970519,8.32439516 C5.43260841,8.32439516 4.59389874,8.56188507 3.80357616,9.03686489 C3.02938261,9.49546609 2.40841486,10.1178534 1.94067293,10.9040269 C1.47293099,11.6902004 1.23906003,12.5336991 1.23906003,13.4345229 C1.23906003,14.4172397 1.46486486,15.3016849 1.91647938,16.0878584 C2.36809228,16.8576533 2.97293099,17.463662 3.73099551,17.9058846 C4.50518906,18.3317286 5.33583422,18.5446506 6.22293099,18.5446506 C8.02938261,18.5446506 9.46486486,17.7175306 10.5293826,16.0632905 L10.5293826,17.3899583 C9.94873745,18.0123456 9.30357616,18.4791361 8.59389874,18.7903298 C7.90035035,19.0851449 7.11002777,19.2325524 6.22293099,19.2325524 Z M12.6708826,7.85760464 L13.4450762,7.85760464 L13.4450762,10.4126685 C13.7676568,9.61011639 14.2353987,8.97953974 14.848302,8.52093853 C15.4773342,8.06233733 16.1869794,7.83303672 16.977302,7.83303672 C17.477302,7.83303672 17.9853665,7.93949772 18.5014955,8.1524197 L18.5014955,9.06143281 C18.0337536,8.70110329 17.50956,8.52093853 16.9289149,8.52093853 C16.3482697,8.52093853 15.7837536,8.70110329 15.2353987,9.06143281 C14.7031407,9.42176233 14.2676568,9.90493146 13.9289471,10.5109402 C13.6063665,11.1169489 13.4450762,11.7639042 13.4450762,12.451806 L13.4450762,18.9131694 L12.6708826,18.9131694 L12.6708826,7.85760464 Z M24.9863342,18.5200827 C25.8250439,18.5200827 26.623431,18.2989714 27.3814955,17.8567488 C28.13956,17.4145262 28.7685923,16.8085175 29.2685923,16.0387226 L29.2685923,17.2916866 C28.6718181,17.9632098 28.0185923,18.4545682 27.3089149,18.7657619 C26.5992374,19.060577 25.7927858,19.2079845 24.88956,19.2079845 C23.88956,19.2079845 22.9460116,18.9377373 22.0589149,18.3972431 C21.1879471,17.8567488 20.4863342,17.1360898 19.9540762,16.235266 C19.4379471,15.3344422 19.1798826,14.3762932 19.1798826,13.3608191 C19.1798826,12.2634519 19.4379471,11.2807351 19.9540762,10.4126685 C20.4702052,9.52822332 21.1718181,8.84032151 22.0589149,8.34896308 C22.9621407,7.85760464 23.9621407,7.61192543 25.0589149,7.61192543 C26.7363342,7.61192543 28.1637536,8.28344862 29.3411729,9.62649501 L21.7443987,17.2425507 C22.2766568,17.6847733 22.7927858,18.0123456 23.2927858,18.2252676 C23.7927858,18.421811 24.357302,18.5200827 24.9863342,18.5200827 Z M19.9540762,13.2871153 C19.9540762,14.6465403 20.3976245,15.809422 21.2847213,16.7757602 L28.373431,9.62649501 C27.8411729,9.15151519 27.3250439,8.81575359 26.8250439,8.61921022 C26.3250439,8.40628823 25.7282697,8.29982724 25.0347213,8.29982724 C24.0508503,8.29982724 23.1718181,8.52093853 22.3976245,8.96316112 C21.63956,9.3890051 21.0427858,9.97863522 20.607302,10.7320515 C20.1718181,11.4854678 19.9540762,12.3371557 19.9540762,13.2871153 Z M56.1100262,18.4136217 C56.9487358,18.4136217 57.7471229,18.1925104 58.5051874,17.7502878 C59.263252,17.3080652 59.8922842,16.7020565 60.3922842,15.9322616 L60.3922842,17.1852256 C59.79551,17.8567488 59.1422842,18.3481072 58.4326068,18.6593009 C57.7229294,18.954116 56.9164778,19.1015235 56.013252,19.1015235 C55.013252,19.1015235 54.0697036,18.8312764 53.1826068,18.2907821 C52.3116391,17.7502878 51.6100262,17.0296288 51.0777681,16.128805 C50.5616391,15.2279812 50.3035745,14.2698322 50.3035745,13.2543581 C50.3035745,12.1569909 50.5616391,11.1742741 51.0777681,10.3062075 C51.5938971,9.42176233 52.29551,8.73386052 53.1826068,8.24250208 C54.0858326,7.75114365 55.0858326,7.50546443 56.1826068,7.50546443 C57.8600262,7.50546443 59.2874455,8.17698763 60.4648649,9.52003401 L52.8680907,17.1360898 C53.4003487,17.5783123 53.9164778,17.9058846 54.4164778,18.1188066 C54.9164778,18.31535 55.4809939,18.4136217 56.1100262,18.4136217 Z M51.0777681,13.1806544 C51.0777681,14.5400794 51.5213165,15.702961 52.4084133,16.6692992 L59.4971229,9.52003401 C58.9648649,9.04505419 58.4487358,8.7092926 57.9487358,8.51274922 C57.4487358,8.29982724 56.8519616,8.19336624 56.1584133,8.19336624 C55.1745423,8.19336624 54.29551,8.41447754 53.5213165,8.85670013 C52.763252,9.2825441 52.1664778,9.87217423 51.7309939,10.6255905 C51.29551,11.3790068 51.0777681,12.2306947 51.0777681,13.1806544 Z M36.8902052,19.1834166 C35.8579471,19.1834166 34.8982697,18.9213587 34.0111729,18.3972431 C33.1240762,17.8731274 32.4224633,17.168847 31.9063342,16.2844018 C31.3902052,15.383578 31.1321407,14.4172397 31.1321407,13.385387 C31.1321407,12.3535343 31.3902052,11.3953854 31.9063342,10.5109402 C32.4224633,9.61011639 33.1240762,8.89764666 34.0111729,8.373531 C34.8982697,7.84941534 35.8579471,7.58735751 36.8902052,7.58735751 C37.9385923,7.58735751 38.9305278,7.87398326 39.8660116,8.44723477 C40.8014955,9.00410766 41.4547213,9.732956 41.8256891,10.6337798 L41.8256891,7.85760464 L42.5998826,7.85760464 L42.5998826,18.9131694 L41.8256891,18.9131694 L41.8256891,16.1615622 C41.3902052,17.0787646 40.7127858,17.8158023 39.793431,18.3726751 C38.8902052,18.9131694 37.9224633,19.1834166 36.8902052,19.1834166 Z M36.9385923,18.4955148 C37.8256891,18.4955148 38.6482697,18.2662142 39.4063342,17.8076129 C40.1643987,17.3326331 40.7611729,16.7102458 41.1966568,15.9404509 C41.6482697,15.1542774 41.8740762,14.3025894 41.8740762,13.385387 C41.8740762,12.4845632 41.6482697,11.6410646 41.1966568,10.8548911 C40.7450439,10.0687176 40.1402052,9.44633025 39.3821407,8.98772904 C38.6240762,8.51274922 37.8014955,8.27525931 36.9143987,8.27525931 C36.027302,8.27525931 35.1966568,8.51274922 34.4224633,8.98772904 C33.6643987,9.46270886 33.0514955,10.0932855 32.5837536,10.879459 C32.1321407,11.6656325 31.9063342,12.5091312 31.9063342,13.409955 C31.9063342,14.3107788 32.1321407,15.1542774 32.5837536,15.9404509 C33.0514955,16.7102458 33.6724633,17.3326331 34.4466568,17.8076129 C35.2208503,18.2662142 36.0514955,18.4955148 36.9385923,18.4955148 Z M49.5485923,19.060577 C48.3550439,19.060577 47.3631084,18.6920581 46.5727858,17.9550205 C45.7985923,17.2179828 45.4114955,16.2025087 45.4114955,14.9085982 L45.4114955,3.41081081 L46.1856891,3.41081081 L46.1856891,7.85760464 L49.5243987,7.85760464 L49.5243987,8.54550645 L46.1856891,8.54550645 L46.1856891,14.9085982 C46.1856891,15.9895867 46.5002052,16.8412747 47.1292374,17.463662 C47.7743987,18.0696708 48.5808503,18.3726751 49.5485923,18.3726751 L49.5485923,19.060577 Z" id="Create" fill="#FFFFFF"></path>
                        <g id="Group-3" transform="translate(63.464865, 9.410811)">
                            <path d="M4,0 L4.19964034,0.00489530723 C6.31603153,0.108921124 8,1.85780461 8,4 C8,6.209139 6.209139,8 4,8 L4,8 L4,0 L4,0 Z" id="Combined-Shape" fill="#F5AA0D"></path>
                            <path d="M0,0 L0.199640343,0.00489530723 C2.31603153,0.108921124 4,1.85780461 4,4 C4,6.209139 2.209139,8 0,8 L0,8 L0,0 L0,0 Z" id="Combined-Shape" fill="#FFFFFF" transform="translate(2.000000, 4.000000) rotate(-180.000000) translate(-2.000000, -4.000000) "></path>
                        </g>
                        <path d="M80.171562,19.1929854 C79.1325275,19.1929854 78.1734188,18.9354692 77.2942357,18.4204367 C76.4310378,17.9054042 75.7436766,17.2133293 75.2321519,16.344212 C74.7206272,15.4750947 74.4648649,14.5255035 74.4648649,13.4954385 C74.4648649,12.4653735 74.7206272,11.5157824 75.2321519,10.6466651 C75.7436766,9.77754772 76.4310378,9.08547281 77.2942357,8.57044032 C78.1734188,8.05540783 79.1325275,7.79789159 80.171562,7.79789159 C81.1786262,7.79789159 82.137735,8.0715026 83.0488883,8.61872462 C83.9600417,9.14985187 84.6314178,9.84997417 85.0630167,10.7190915 L85.0630167,0.820810811 L85.8303037,0.820810811 L85.8303037,18.9274218 L85.0630167,18.9274218 L85.0630167,16.2959277 C84.5834624,17.165045 83.8881085,17.8651673 82.9769552,18.3962946 C82.081787,18.9274218 81.1466559,19.1929854 80.171562,19.1929854 Z M80.1475843,18.5170053 C81.0267673,18.5170053 81.8420098,18.2916786 82.5933117,17.8410252 C83.3605987,17.374277 83.9680342,16.7626759 84.4156183,16.0062219 C84.8791876,15.2336732 85.1109722,14.4047928 85.1109722,13.5195807 C85.1109722,12.6343686 84.8791876,11.8054882 84.4156183,11.0329394 C83.9680342,10.2603907 83.3605987,9.64074222 82.5933117,9.17399402 C81.8420098,8.70724583 81.0267673,8.47387173 80.1475843,8.47387173 C79.2684013,8.47387173 78.4531588,8.70724583 77.701857,9.17399402 C76.9505551,9.62464745 76.3511121,10.2362485 75.903528,11.0087973 C75.4559439,11.781346 75.2321519,12.6102264 75.2321519,13.4954385 C75.2321519,14.3967454 75.4479514,15.2336732 75.8795503,16.0062219 C76.3271344,16.7626759 76.9265774,17.374277 77.6778792,17.8410252 C78.4451662,18.2916786 79.2684013,18.5170053 80.1475843,18.5170053 Z M97.5606835,19.1929854 L95.1149562,13.9299972 L92.6452511,19.1929854 L87.4660638,8.06345521 L88.2573285,8.06345521 L92.6692288,17.5030351 L94.7552904,13.085022 L92.4534293,8.11173951 L93.2207164,8.11173951 L95.1389339,12.3124733 L97.1051069,8.06345521 L97.8723939,8.06345521 L95.5225774,13.1091641 L97.5606835,17.5271772 L101.900651,8.08759736 L102.667938,8.08759736 L97.5606835,19.1929854 Z M109.070468,18.5411475 C109.901696,18.5411475 110.692961,18.3238681 111.444262,17.8893095 C112.195564,17.4547508 112.818985,16.8592445 113.314525,16.1027905 L113.314525,17.3340401 C112.723074,17.9939254 112.075676,18.4767684 111.372329,18.7825689 C110.668983,19.0722747 109.869726,19.2171276 108.974557,19.2171276 C107.983478,19.2171276 107.048347,18.951564 106.169164,18.4204367 C105.305966,17.8893095 104.610613,17.1811398 104.083103,16.2959277 C103.571578,15.4107156 103.315816,14.4691718 103.315816,13.4712964 C103.315816,12.3929471 103.571578,11.4272612 104.083103,10.5742386 C104.594627,9.70512128 105.289981,9.02914113 106.169164,8.54629817 C107.064332,8.06345521 108.055411,7.82203373 109.142401,7.82203373 C110.804857,7.82203373 112.219542,8.48191911 113.386458,9.80168987 L105.857454,17.2857558 C106.384964,17.7203144 106.896488,18.0422097 107.392028,18.2514417 C107.887567,18.4445789 108.447048,18.5411475 109.070468,18.5411475 Z M104.083103,13.3988699 C104.083103,14.7347354 104.522694,15.8774638 105.401877,16.8270549 L112.427349,9.80168987 C111.899839,9.33494168 111.388314,9.00499899 110.892775,8.8118618 C110.397235,8.60262985 109.805785,8.49801388 109.118424,8.49801388 C108.14333,8.49801388 107.272139,8.71529321 106.504852,9.14985187 C105.75355,9.56831577 105.1621,10.1477273 104.730501,10.8880865 C104.298902,11.6284457 104.083103,12.4653735 104.083103,13.3988699 Z M119.885059,19.1447012 C119.133757,19.1447012 118.446396,18.9757061 117.822975,18.637716 C117.199554,18.2836312 116.704015,17.7927409 116.336357,17.165045 C115.968698,16.5373492 115.784869,15.8372269 115.784869,15.0646781 L115.784869,0.820810811 L116.552156,0.820810811 L116.552156,15.0646781 C116.552156,15.7084688 116.696022,16.2878803 116.983755,16.8029128 C117.287473,17.3179453 117.695094,17.7283618 118.206619,18.0341623 C118.718143,18.3238681 119.277623,18.468721 119.885059,18.468721 L119.885059,19.1447012 Z M126.464865,19.1447012 C125.713563,19.1447012 125.026202,18.9757061 124.402781,18.637716 C123.77936,18.2836312 123.283821,17.7927409 122.916162,17.165045 C122.548504,16.5373492 122.364675,15.8372269 122.364675,15.0646781 L122.364675,0.820810811 L123.131962,0.820810811 L123.131962,15.0646781 C123.131962,15.7084688 123.275828,16.2878803 123.563561,16.8029128 C123.867279,17.3179453 124.2749,17.7283618 124.786425,18.0341623 C125.297949,18.3238681 125.857429,18.468721 126.464865,18.468721 L126.464865,19.1447012 Z" id="Dwell" fill="#F5AA0D"></path>
                    </g>
                </g>
            </g>
        </g>
    </g>
</svg>