<?xml version="1.0" encoding="UTF-8"?>
<svg width="53px" height="20px" viewBox="0 0 53 20" version="1.1" xmlns="http://www.w3.org/2000/svg" xmlns:xlink="http://www.w3.org/1999/xlink">
    <!-- Generator: Sketch 63.1 (92452) - https://sketch.com -->
    <title>Dwell</title>
    <desc>Created with Sketch.</desc>
    <g id="Page-1" stroke="none" stroke-width="1" fill="none" fill-rule="evenodd">
        <g id="Logo" transform="translate(-490.000000, -58.000000)" fill="#F5AA0D" fill-rule="nonzero">
            <g id="Group-2" transform="translate(420.000000, 57.000000)">
                <g id="logo">
                    <g id="Group" transform="translate(9.535135, 1.589189)">
                        <path d="M66.3286856,18.5224814 C65.2851271,18.5224814 64.3218423,18.2638439 63.4388313,17.7465689 C62.571875,17.229294 61.8815209,16.5342057 61.367769,15.6613042 C60.8540171,14.7884027 60.5971412,13.834677 60.5971412,12.800127 C60.5971412,11.7655771 60.8540171,10.8118514 61.367769,9.93894984 C61.8815209,9.06604833 62.571875,8.37096009 63.4388313,7.85368512 C64.3218423,7.33641015 65.2851271,7.07777266 66.3286856,7.07777266 C67.3401347,7.07777266 68.3034194,7.35257499 69.21854,7.90217965 C70.1336605,8.43561946 70.8079599,9.13879012 71.241438,10.0116916 L71.241438,0.0703132915 L72.0120658,0.0703132915 L72.0120658,18.2557615 L71.241438,18.2557615 L71.241438,15.6128097 C70.7597956,16.4857112 70.0614142,17.1888819 69.1462936,17.7223217 C68.2472278,18.2557615 67.3080252,18.5224814 66.3286856,18.5224814 Z M66.3046035,17.843558 C67.1876146,17.843558 68.0064066,17.6172502 68.7609797,17.1646346 C69.5316075,16.6958541 70.1416879,16.0815901 70.5912208,15.3218425 C71.0568084,14.5459301 71.2896022,13.7134406 71.2896022,12.8243743 C71.2896022,11.9353079 71.0568084,11.1028185 70.5912208,10.3269061 C70.1416879,9.55099362 69.5316075,8.92864717 68.7609797,8.45986672 C68.0064066,7.99108628 67.1876146,7.75669606 66.3046035,7.75669606 C65.4215925,7.75669606 64.6028004,7.99108628 63.8482273,8.45986672 C63.0936543,8.91248232 62.4916013,9.52674635 62.0420684,10.3026588 C61.5925355,11.0785713 61.367769,11.9110607 61.367769,12.800127 C61.367769,13.7053582 61.5845081,14.5459301 62.0179863,15.3218425 C62.4675191,16.0815901 63.0695721,16.6958541 63.8241452,17.1646346 C64.594773,17.6172502 65.4215925,17.843558 66.3046035,17.843558 Z M83.7935203,18.5224814 L81.3371441,13.2365778 L78.8566858,18.5224814 L73.654948,7.34449257 L74.449658,7.34449257 L78.880768,16.8251729 L80.9759123,12.3879235 L78.6640289,7.3929871 L79.4346567,7.3929871 L81.3612263,11.6120111 L83.3359601,7.34449257 L84.1065879,7.34449257 L81.7465402,12.4121708 L83.7935203,16.8494202 L88.1523839,7.36873983 L88.9230118,7.36873983 L83.7935203,18.5224814 Z M95.3534193,17.8678053 C96.1882661,17.8678053 96.9829761,17.6495799 97.7375491,17.2131291 C98.4921222,16.7766784 99.1182573,16.1785792 99.6159545,15.4188316 L99.6159545,16.655442 C99.0219288,17.3182006 98.3717116,17.8031459 97.6653028,18.1102779 C96.9588939,18.4012451 96.1561566,18.5467287 95.2570908,18.5467287 C94.2616966,18.5467287 93.3224939,18.2800087 92.4394829,17.7465689 C91.5725266,17.2131291 90.8741451,16.501876 90.3443385,15.6128097 C89.8305866,14.7237433 89.5737106,13.7781 89.5737106,12.7758798 C89.5737106,11.6928353 89.8305866,10.7229447 90.3443385,9.86620805 C90.8580903,8.99330654 91.5564718,8.31438314 92.4394829,7.82943785 C93.3385487,7.34449257 94.3339429,7.10201993 95.4256657,7.10201993 C97.0953593,7.10201993 98.5162043,7.76477848 99.6882008,9.09029559 L92.1264153,16.6069475 C92.6562219,17.0433983 93.1699738,17.3666951 93.667671,17.5768381 C94.1653681,17.7708162 94.7272842,17.8678053 95.3534193,17.8678053 Z M90.3443385,12.703138 C90.3443385,14.0448199 90.785844,15.1925238 91.668855,16.1462495 L98.724916,9.09029559 C98.1951094,8.62151515 97.6813575,8.29013587 97.1836604,8.09615776 C96.6859633,7.8860148 96.0919376,7.78094332 95.4015836,7.78094332 C94.422244,7.78094332 93.5472604,7.9991687 92.7766325,8.43561946 C92.0220595,8.85590537 91.4280338,9.43783972 90.9945557,10.1814225 C90.5610775,10.9250053 90.3443385,11.7655771 90.3443385,12.703138 Z M106.215097,18.4739869 C105.460524,18.4739869 104.77017,18.304256 104.144035,17.9647943 C103.5179,17.6091678 103.020203,17.1161401 102.650944,16.4857112 C102.281685,15.8552823 102.097055,15.1521117 102.097055,14.3761992 L102.097055,0.0703132915 L102.867683,0.0703132915 L102.867683,14.3761992 C102.867683,15.0227929 103.012175,15.6047273 103.301161,16.1220022 C103.606201,16.6392772 104.015597,17.0514807 104.529349,17.3586127 C105.043101,17.6495799 105.605017,17.7950635 106.215097,17.7950635 L106.215097,18.4739869 Z M112.823552,18.4739869 C112.068979,18.4739869 111.378625,18.304256 110.75249,17.9647943 C110.126355,17.6091678 109.628658,17.1161401 109.259398,16.4857112 C108.890139,15.8552823 108.70551,15.1521117 108.70551,14.3761992 L108.70551,0.0703132915 L109.476137,0.0703132915 L109.476137,14.3761992 C109.476137,15.0227929 109.62063,15.6047273 109.909616,16.1220022 C110.214656,16.6392772 110.624052,17.0514807 111.137804,17.3586127 C111.651556,17.6495799 112.213472,17.7950635 112.823552,17.7950635 L112.823552,18.4739869 Z" id="Dwell"></path>
                    </g>
                </g>
            </g>
        </g>
    </g>
</svg>