<svg width="826" height="467" viewBox="0 0 826 467" fill="none" xmlns="http://www.w3.org/2000/svg">
<path d="M382 467H1C0.734784 467 0.480429 466.895 0.292892 466.707C0.105356 466.52 0 466.265 0 466C0 465.735 0.105356 465.48 0.292892 465.293C0.480429 465.105 0.734784 465 1 465H382C382.265 465 382.52 465.105 382.707 465.293C382.895 465.48 383 465.735 383 466C383 466.265 382.895 466.52 382.707 466.707C382.52 466.895 382.265 467 382 467Z" fill="#3F3D56"/>
<path d="M818.803 29H812.803V30H818.803V29Z" fill="#E6E6E6"/>
<path d="M800.682 30H788.561V29H800.682V30ZM776.44 30H764.319V29H776.44L776.44 30ZM752.197 30H740.076V29H752.197V30ZM727.955 30H715.834V29H727.955V30ZM703.712 30H691.591V29H703.712V30ZM679.47 30H667.349V29H679.47V30ZM655.227 30H643.106V29H655.227V30ZM630.985 30H618.864V29H630.985V30ZM606.743 30H594.621V29H606.743V30ZM582.5 30H570.379V29H582.5V30ZM558.258 30H546.137V29H558.258V30ZM534.015 30H521.894V29H534.015V30ZM509.773 30H497.652V29H509.773V30ZM485.53 30H473.409V29H485.53V30ZM461.288 30H449.167V29H461.288V30ZM437.046 30H424.924V29H437.046V30Z" fill="#E6E6E6"/>
<path d="M412.803 29H406.803V30H412.803V29Z" fill="#E6E6E6"/>
<path d="M621.803 122H615.803V123H621.803V122Z" fill="#E6E6E6"/>
<path d="M603.862 123H591.921V122H603.862V123ZM579.979 123H568.038V122H579.979V123ZM556.097 123H544.156V122H556.097V123ZM532.215 123H520.274V122H532.215V123ZM508.332 123H496.391V122H508.332V123ZM484.45 123H472.509V122H484.45V123ZM460.568 123H448.626V122H460.568L460.568 123ZM436.685 123H424.744V122H436.685V123Z" fill="#E6E6E6"/>
<path d="M412.803 122H406.803V123H412.803V122Z" fill="#E6E6E6"/>
<path d="M504.803 166H498.803V167H504.803V166Z" fill="#E6E6E6"/>
<path d="M486.517 167H474.232V166H486.517V167ZM461.946 167H449.66V166H461.946V167ZM437.375 167H425.089V166H437.375V167Z" fill="#E6E6E6"/>
<path d="M412.803 166H406.803V167H412.803V166Z" fill="#E6E6E6"/>
<path d="M818.67 105.01V276.27C818.66 284.886 815.233 293.147 809.14 299.24C803.047 305.333 794.786 308.76 786.17 308.77H438.17C433.608 308.773 429.097 307.813 424.931 305.952C420.766 304.09 417.041 301.371 414 297.97V296.44C416.928 299.962 420.59 302.801 424.731 304.758C428.872 306.715 433.39 307.743 437.97 307.77L498.16 247.58C498.949 246.791 499.886 246.164 500.917 245.737C501.949 245.31 503.054 245.09 504.17 245.09C505.286 245.09 506.392 245.31 507.423 245.737C508.454 246.164 509.391 246.791 510.18 247.58L542.17 279.56L617.16 204.58C617.949 203.791 618.886 203.164 619.917 202.737C620.949 202.31 622.054 202.09 623.17 202.09C624.286 202.09 625.392 202.31 626.423 202.737C627.454 203.164 628.391 203.791 629.18 204.58L673.17 248.56L816.68 105.06L817.67 105.03L818.13 105.02L818.67 105.01Z" fill="#408BA6"/>
<path d="M438.707 307.707L438 307L498.343 246.657C499.938 245.065 502.1 244.171 504.354 244.171C506.607 244.171 508.769 245.065 510.364 246.657L542.353 278.646L617.343 203.657C618.938 202.065 621.1 201.171 623.353 201.171C625.607 201.171 627.769 202.065 629.364 203.657L673.353 247.646L818 103L818.707 103.707L673.353 249.06L628.657 204.364C627.96 203.667 627.134 203.115 626.224 202.738C625.314 202.361 624.338 202.167 623.353 202.167C622.369 202.167 621.393 202.361 620.483 202.738C619.573 203.115 618.747 203.667 618.05 204.364L542.353 280.06L509.657 247.364C508.249 245.959 506.342 245.171 504.353 245.171C502.365 245.171 500.458 245.959 499.05 247.364L438.707 307.707Z" fill="#408BA6"/>
<path d="M786.5 309H438.5C429.883 308.99 421.623 305.563 415.53 299.47C409.437 293.377 406.01 285.117 406 276.5V97.5C406.01 88.8835 409.437 80.6226 415.53 74.5298C421.623 68.437 429.883 65.0098 438.5 65H786.5C795.117 65.0098 803.377 68.437 809.47 74.5298C815.563 80.6226 818.99 88.8835 819 97.5V276.5C818.99 285.117 815.563 293.377 809.47 299.47C803.377 305.563 795.117 308.99 786.5 309V309ZM438.5 66C430.149 66.0094 422.142 69.3312 416.237 75.2366C410.331 81.1419 407.009 89.1486 407 97.5V276.5C407.009 284.851 410.331 292.858 416.237 298.763C422.142 304.669 430.149 307.991 438.5 308H786.5C794.851 307.991 802.858 304.669 808.763 298.763C814.669 292.858 817.991 284.851 818 276.5V97.5C817.991 89.1486 814.669 81.1419 808.763 75.2366C802.858 69.3312 794.851 66.0094 786.5 66H438.5Z" fill="#3F3D56"/>
<path d="M180.531 463.956L141 463.954V463.454C141 461.434 141.398 459.433 142.171 457.566C142.944 455.699 144.078 454.003 145.507 452.574C146.935 451.146 148.632 450.012 150.498 449.239C152.365 448.466 154.366 448.068 156.386 448.068H156.387L180.531 448.069L180.531 463.956Z" fill="#2F2E41"/>
<path d="M243.331 448.069L267.474 448.068H267.475C269.496 448.068 271.497 448.466 273.364 449.239C275.23 450.012 276.927 451.146 278.355 452.574C279.784 454.003 280.918 455.699 281.691 457.566C282.464 459.433 282.862 461.434 282.862 463.454V463.954L243.331 463.956L243.331 448.069Z" fill="#2F2E41"/>
<path d="M246.78 446.011C245.757 446.008 244.765 445.658 243.967 445.018C243.169 444.378 242.612 443.486 242.386 442.489L211.999 309.95C211.933 309.613 211.749 309.31 211.481 309.096C211.213 308.881 210.878 308.768 210.535 308.776H210.528C210.183 308.769 209.847 308.885 209.58 309.103C209.313 309.32 209.131 309.626 209.067 309.964L181.163 441.61C180.945 442.617 180.39 443.519 179.59 444.168C178.789 444.816 177.791 445.172 176.761 445.176H163.468C162.854 445.176 162.248 445.051 161.685 444.808C161.121 444.565 160.614 444.209 160.193 443.763C159.773 443.316 159.448 442.789 159.238 442.212C159.029 441.636 158.939 441.023 158.976 440.411L168.877 273.555L172.861 272.376L172.935 272.377L251.193 273.062L267.861 439.734C267.919 440.328 267.858 440.928 267.682 441.499C267.506 442.07 267.218 442.6 266.835 443.058C266.451 443.516 265.981 443.893 265.45 444.168C264.92 444.442 264.34 444.608 263.744 444.656L247.14 445.996C247.02 446.006 246.899 446.011 246.78 446.011Z" fill="#2F2E41"/>
<path d="M214.462 119.647C228.027 119.647 239.023 108.651 239.023 95.086C239.023 81.5213 228.027 70.5249 214.462 70.5249C200.898 70.5249 189.901 81.5213 189.901 95.086C189.901 108.651 200.898 119.647 214.462 119.647Z" fill="#A0616A"/>
<path d="M199.416 291.849C195.107 291.902 190.816 291.298 186.689 290.058C183.018 288.951 179.613 287.105 176.683 284.633C173.753 282.16 171.36 279.115 169.651 275.683C169.109 274.65 168.989 273.448 169.316 272.329C172.024 263.083 185.114 215.028 176.762 176.826C175.584 171.519 175.486 166.029 176.474 160.683C177.463 155.337 179.518 150.245 182.518 145.711C185.447 141.213 189.252 137.35 193.707 134.354C198.161 131.358 203.174 129.29 208.445 128.273L208.445 128.272C209.83 128.001 211.223 127.78 212.584 127.612C218.411 126.895 224.324 127.474 229.9 129.309C235.477 131.144 240.579 134.188 244.842 138.225C249.231 142.341 252.656 147.376 254.872 152.971C257.087 158.565 258.038 164.58 257.657 170.585L251.239 273.589C251.194 274.361 250.95 275.109 250.53 275.758C250.109 276.407 249.527 276.936 248.841 277.292C241.448 281.166 219.241 291.849 199.416 291.849Z" fill="#CCCCCC"/>
<path d="M175.05 274.936C176.456 274.236 177.692 273.237 178.67 272.008C179.648 270.779 180.344 269.351 180.711 267.823C181.077 266.296 181.104 264.707 180.79 263.169C180.475 261.63 179.828 260.179 178.892 258.917L186.925 180.377H169.565L163.181 257.068C161.166 258.78 159.849 261.172 159.48 263.79C159.112 266.409 159.716 269.071 161.179 271.274C162.642 273.476 164.862 275.066 167.419 275.74C169.975 276.415 172.691 276.129 175.05 274.936V274.936Z" fill="#A0616A"/>
<path d="M188.153 143.195C191.543 143.876 194.569 145.769 196.665 148.519C198.761 151.269 199.785 154.688 199.544 158.137L197.151 192.38C197.109 192.98 196.932 193.564 196.634 194.086C196.335 194.609 195.922 195.057 195.426 195.398C194.93 195.739 194.363 195.963 193.768 196.055C193.174 196.146 192.566 196.102 191.99 195.926L163.166 187.102C162.641 186.942 162.155 186.675 161.738 186.318C161.32 185.961 160.981 185.523 160.741 185.029C160.5 184.536 160.364 183.998 160.34 183.449C160.317 182.901 160.406 182.354 160.603 181.841L172.07 152.036C173.276 148.901 175.552 146.294 178.495 144.676C181.439 143.058 184.86 142.534 188.153 143.195V143.195Z" fill="#CCCCCC"/>
<path d="M242.209 77.0068C239.658 70.5949 234.984 65.252 228.969 61.8699C222.954 58.4878 215.96 57.2712 209.156 58.4231L216.9 64.6809C207.279 65.0049 197.151 64.316 190.281 71.0603C192.468 70.9996 195.334 75.6776 197.521 75.6169C193.433 75.6978 189.725 78.5708 187.919 82.2401C186.246 86.0099 185.855 90.2239 186.805 94.2372C187.612 98.2464 193.773 107.639 195.431 111.377C195.146 101.607 214.38 78.3029 223.773 80.735C219.001 82.5055 214.86 85.6495 211.872 89.7703C218.262 86.5455 225.489 85.363 232.573 86.3832C234.191 86.7541 235.859 86.8475 237.508 86.6594C238.519 86.4595 239.461 86.0039 240.245 85.336C241.03 84.6681 241.63 83.8103 241.988 82.8445C242.346 81.8787 242.451 80.8372 242.292 79.8194C242.133 78.8016 241.716 77.8415 241.08 77.0309L242.209 77.0068Z" fill="#2F2E41"/>
<path d="M211.431 231.367C211.981 231.43 212.525 231.537 213.058 231.686L250.704 199.402L248.503 187.556L265.946 181.899L271.879 202.49C272.359 204.154 272.285 205.928 271.671 207.546C271.056 209.164 269.933 210.54 268.47 211.465L220.792 241.636C220.826 243.767 220.21 245.858 219.027 247.631C217.843 249.404 216.148 250.774 214.166 251.56C212.185 252.346 210.011 252.51 207.934 252.03C205.857 251.55 203.975 250.449 202.539 248.874C201.103 247.299 200.181 245.324 199.895 243.211C199.608 241.099 199.972 238.949 200.938 237.049C201.903 235.148 203.424 233.587 205.298 232.572C207.173 231.557 209.312 231.136 211.431 231.367V231.367Z" fill="#A0616A"/>
<path d="M243.686 144.428C247.071 143.723 250.597 144.275 253.605 145.98C256.613 147.685 258.897 150.428 260.031 153.694L271.282 186.124C271.479 186.693 271.546 187.299 271.476 187.897C271.407 188.495 271.203 189.069 270.881 189.578C270.559 190.086 270.126 190.515 269.615 190.833C269.104 191.15 268.527 191.349 267.929 191.413L237.955 194.621C237.41 194.68 236.858 194.625 236.334 194.461C235.81 194.297 235.326 194.027 234.911 193.667C234.496 193.308 234.159 192.867 233.922 192.372C233.685 191.877 233.552 191.338 233.532 190.79L232.369 158.877C232.246 155.52 233.315 152.228 235.386 149.584C237.458 146.94 240.398 145.113 243.686 144.428V144.428Z" fill="#CCCCCC"/>
<path d="M150.548 59.1442H17.7856C17.5772 59.1442 17.3774 59.0614 17.2301 58.9141C17.0827 58.7668 17 58.567 17 58.3586C17 58.1503 17.0827 57.9505 17.2301 57.8031C17.3774 57.6558 17.5772 57.5731 17.7856 57.5731H150.548C150.756 57.5731 150.956 57.6558 151.103 57.8031C151.25 57.9505 151.333 58.1503 151.333 58.3586C151.333 58.567 151.25 58.7668 151.103 58.9141C150.956 59.0614 150.756 59.1442 150.548 59.1442Z" fill="#3F3D56"/>
<path d="M107.341 46.2846H62.5635C61.7301 46.2846 60.9309 45.9535 60.3416 45.3642C59.7523 44.775 59.4212 43.9757 59.4212 43.1423C59.4212 42.3089 59.7523 41.5097 60.3416 40.9204C60.9309 40.3311 61.7301 40 62.5635 40H107.341C108.175 40 108.974 40.3311 109.563 40.9204C110.152 41.5097 110.483 42.3089 110.483 43.1423C110.483 43.9757 110.152 44.775 109.563 45.3642C108.974 45.9535 108.175 46.2846 107.341 46.2846Z" fill="#CCCCCC"/>
<path d="M60.4939 195.461C60.1737 195.056 59.9502 194.584 59.8403 194.079C59.7304 193.575 59.737 193.052 59.8596 192.55C62.7895 180.278 62.7894 167.488 59.8594 155.216C59.7369 154.714 59.7304 154.192 59.8403 153.687C59.9503 153.183 60.1738 152.71 60.4939 152.305C60.8072 151.906 61.2074 151.583 61.6642 151.362C62.1209 151.141 62.6222 151.027 63.1297 151.028H94.452C95.2524 151.03 96.0262 151.315 96.6358 151.834C97.2453 152.353 97.651 153.071 97.7805 153.861C99.8237 167.131 99.8237 180.636 97.7805 193.906C97.651 194.696 97.2453 195.414 96.6358 195.932C96.0262 196.451 95.2524 196.737 94.452 196.738H63.1297C62.6222 196.74 62.121 196.626 61.6642 196.404C61.2075 196.183 60.8072 195.86 60.4939 195.461V195.461Z" fill="#E6E6E6"/>
<path d="M103.253 141.586C101.21 128.316 101.21 114.811 103.253 101.541C103.382 100.751 103.788 100.033 104.397 99.5145C105.007 98.9958 105.781 98.7102 106.581 98.7087H137.904C138.411 98.7071 138.912 98.8214 139.369 99.0427C139.826 99.2641 140.226 99.5868 140.539 99.9863C140.86 100.391 141.083 100.864 141.193 101.368C141.303 101.872 141.296 102.395 141.174 102.896C138.244 115.169 138.244 127.959 141.173 140.231C141.296 140.732 141.303 141.255 141.193 141.759C141.083 142.264 140.86 142.736 140.539 143.141C140.226 143.541 139.826 143.863 139.369 144.085C138.912 144.306 138.411 144.42 137.904 144.419H106.581C105.781 144.417 105.007 144.132 104.397 143.613C103.788 143.094 103.382 142.376 103.253 141.586V141.586Z" fill="#408BA6"/>
<path d="M32.5032 129.718C32.1778 129.306 31.9506 128.826 31.8389 128.313C31.7272 127.8 31.7339 127.269 31.8585 126.759C34.8368 114.285 34.8367 101.285 31.8583 88.8113C31.7338 88.3016 31.7271 87.7702 31.8389 87.2576C31.9507 86.7449 32.1779 86.2645 32.5033 85.8529C32.8217 85.447 33.2285 85.1191 33.6928 84.8942C34.1571 84.6693 34.6665 84.5532 35.1823 84.5548H67.0195C67.833 84.5564 68.6196 84.8466 69.2392 85.3738C69.8587 85.9011 70.271 86.6311 70.4027 87.4339C72.4795 100.922 72.4795 114.649 70.4027 128.137C70.271 128.94 69.8587 129.67 69.2392 130.197C68.6196 130.724 67.833 131.014 67.0195 131.016H35.1823C34.6665 131.017 34.157 130.901 33.6927 130.676C33.2285 130.452 32.8217 130.124 32.5032 129.718V129.718Z" fill="#FF6584"/>
<path d="M60.876 101.698H44.1045C43.4797 101.697 42.8807 101.448 42.4389 101.007C41.997 100.565 41.7485 99.9656 41.7478 99.3408V98.34C41.7485 97.7151 41.997 97.1161 42.4389 96.6743C42.8807 96.2324 43.4797 95.9839 44.1045 95.9832H60.876C61.5008 95.9839 62.0999 96.2324 62.5417 96.6743C62.9835 97.1161 63.232 97.7151 63.2327 98.34V99.3408C63.232 99.9656 62.9835 100.565 62.5417 101.007C62.0999 101.448 61.5008 101.697 60.876 101.698Z" fill="white"/>
<path d="M60.876 111.554H44.1045C43.4797 111.554 42.8807 111.305 42.4389 110.863C41.997 110.421 41.7485 109.822 41.7478 109.198V108.197C41.7485 107.572 41.997 106.973 42.4389 106.531C42.8807 106.089 43.4797 105.841 44.1045 105.84H60.876C61.5008 105.841 62.0999 106.089 62.5417 106.531C62.9835 106.973 63.232 107.572 63.2327 108.197V109.198C63.232 109.822 62.9835 110.421 62.5417 110.863C62.0999 111.305 61.5008 111.554 60.876 111.554V111.554Z" fill="white"/>
<path d="M88.0095 166.289H71.5724C70.9476 166.288 70.3486 166.039 69.9067 165.598C69.4649 165.156 69.2164 164.557 69.2157 163.932V163.011C69.2164 162.386 69.4649 161.787 69.9067 161.345C70.3486 160.904 70.9476 160.655 71.5724 160.654H88.0095C88.6343 160.655 89.2334 160.904 89.6752 161.345C90.117 161.787 90.3655 162.386 90.3662 163.011V163.932C90.3655 164.557 90.117 165.156 89.6752 165.598C89.2334 166.039 88.6343 166.288 88.0095 166.289V166.289Z" fill="white"/>
<path d="M88.0095 177.926H71.5724C70.9476 177.925 70.3486 177.677 69.9067 177.235C69.4649 176.793 69.2164 176.194 69.2157 175.569V174.648C69.2164 174.023 69.4649 173.424 69.9067 172.983C70.3486 172.541 70.9476 172.292 71.5724 172.292H88.0095C88.6343 172.292 89.2334 172.541 89.6752 172.983C90.117 173.424 90.3655 174.023 90.3662 174.648V175.569C90.3655 176.194 90.117 176.793 89.6752 177.235C89.2334 177.677 88.6343 177.925 88.0095 177.926V177.926Z" fill="white"/>
<path d="M88.0095 189.563H71.5724C70.9476 189.562 70.3486 189.314 69.9067 188.872C69.4649 188.43 69.2164 187.831 69.2157 187.206V186.285C69.2164 185.661 69.4649 185.061 69.9067 184.62C70.3486 184.178 70.9476 183.929 71.5724 183.929H88.0095C88.6343 183.929 89.2334 184.178 89.6752 184.62C90.117 185.061 90.3655 185.661 90.3662 186.285V187.206C90.3655 187.831 90.117 188.43 89.6752 188.872C89.2334 189.314 88.6343 189.562 88.0095 189.563V189.563Z" fill="white"/>
<path d="M128.837 119.064H112.4C111.775 119.063 111.176 118.815 110.734 118.373C110.292 117.931 110.044 117.332 110.043 116.707V115.786C110.044 115.162 110.292 114.563 110.734 114.121C111.176 113.679 111.775 113.43 112.4 113.43H128.837C129.462 113.43 130.061 113.679 130.503 114.121C130.945 114.563 131.193 115.162 131.194 115.786V116.707C131.193 117.332 130.945 117.931 130.503 118.373C130.061 118.815 129.462 119.063 128.837 119.064Z" fill="white"/>
<path d="M18.8139 239.993C16.7709 226.723 16.7709 213.218 18.8139 199.948C18.9435 199.158 19.3492 198.44 19.9587 197.921C20.5683 197.402 21.3421 197.117 22.1424 197.115H53.4654C53.973 197.114 54.4742 197.228 54.931 197.449C55.3878 197.671 55.788 197.993 56.1012 198.393C56.4213 198.798 56.6448 199.27 56.7547 199.775C56.8646 200.279 56.858 200.802 56.7355 201.303C53.8054 213.575 53.8053 226.365 56.7353 238.638C56.858 239.139 56.8646 239.662 56.7547 240.166C56.6449 240.67 56.4213 241.143 56.1012 241.548C55.788 241.947 55.3878 242.27 54.931 242.491C54.4742 242.713 53.973 242.827 53.4654 242.825H22.1424C21.3421 242.824 20.5683 242.538 19.9587 242.02C19.3492 241.501 18.9435 240.783 18.8139 239.993V239.993Z" fill="#408BA6"/>
<path d="M43.8262 216.501H27.3893C26.7645 216.5 26.1655 216.251 25.7236 215.81C25.2818 215.368 25.0333 214.769 25.0326 214.144V213.223C25.0333 212.598 25.2818 211.999 25.7236 211.558C26.1655 211.116 26.7645 210.867 27.3893 210.867H43.8262C44.451 210.867 45.05 211.116 45.4918 211.558C45.9337 211.999 46.1822 212.598 46.1829 213.223V214.144C46.1822 214.769 45.9337 215.368 45.4918 215.81C45.05 216.251 44.451 216.5 43.8262 216.501V216.501Z" fill="white"/>
<path d="M43.8262 226.198H27.3893C26.7645 226.198 26.1655 225.949 25.7236 225.507C25.2818 225.065 25.0333 224.466 25.0326 223.842V222.921C25.0333 222.296 25.2818 221.697 25.7236 221.255C26.1655 220.813 26.7645 220.565 27.3893 220.564H43.8262C44.451 220.565 45.05 220.813 45.4918 221.255C45.9337 221.697 46.1822 222.296 46.1829 222.921V223.842C46.1822 224.466 45.9337 225.065 45.4918 225.507C45.05 225.949 44.451 226.198 43.8262 226.198V226.198Z" fill="white"/>
</svg>
