<svg width="826" height="467" viewBox="0 0 826 467" fill="none" xmlns="http://www.w3.org/2000/svg">
<path d="M382 467H1C0.734784 467 0.480429 466.895 0.292892 466.707C0.105356 466.52 0 466.265 0 466C0 465.735 0.105356 465.48 0.292892 465.293C0.480429 465.105 0.734784 465 1 465H382C382.265 465 382.52 465.105 382.707 465.293C382.895 465.48 383 465.735 383 466C383 466.265 382.895 466.52 382.707 466.707C382.52 466.895 382.265 467 382 467Z" fill="#3F3D56"/>
<path d="M818.803 29H812.803V30H818.803V29Z" fill="#E6E6E6"/>
<path d="M800.682 30H788.561V29H800.682V30ZM776.44 30H764.319V29H776.44L776.44 30ZM752.197 30H740.076V29H752.197V30ZM727.955 30H715.834V29H727.955V30ZM703.712 30H691.591V29H703.712V30ZM679.47 30H667.349V29H679.47V30ZM655.227 30H643.106V29H655.227V30ZM630.985 30H618.864V29H630.985V30ZM606.743 30H594.621V29H606.743V30ZM582.5 30H570.379V29H582.5V30ZM558.258 30H546.137V29H558.258V30ZM534.015 30H521.894V29H534.015V30ZM509.773 30H497.652V29H509.773V30ZM485.53 30H473.409V29H485.53V30ZM461.288 30H449.167V29H461.288V30ZM437.046 30H424.924V29H437.046V30Z" fill="#E6E6E6"/>
<path d="M412.803 29H406.803V30H412.803V29Z" fill="#E6E6E6"/>
<path d="M621.803 122H615.803V123H621.803V122Z" fill="#E6E6E6"/>
<path d="M603.862 123H591.921V122H603.862V123ZM579.979 123H568.038V122H579.979V123ZM556.097 123H544.156V122H556.097V123ZM532.215 123H520.274V122H532.215V123ZM508.332 123H496.391V122H508.332V123ZM484.45 123H472.509V122H484.45V123ZM460.568 123H448.626V122H460.568L460.568 123ZM436.685 123H424.744V122H436.685V123Z" fill="#E6E6E6"/>
<path d="M412.803 122H406.803V123H412.803V122Z" fill="#E6E6E6"/>
<path d="M504.803 166H498.803V167H504.803V166Z" fill="#E6E6E6"/>
<path d="M486.517 167H474.232V166H486.517V167ZM461.946 167H449.66V166H461.946V167ZM437.375 167H425.089V166H437.375V167Z" fill="#E6E6E6"/>
<path d="M412.803 166H406.803V167H412.803V166Z" fill="#E6E6E6"/>
<path d="M818.67 45.01V216.27C818.66 224.886 815.233 233.147 809.14 239.24C803.047 245.333 794.786 248.76 786.17 248.77H438.17C433.608 248.773 429.097 247.813 424.931 245.952C420.766 244.09 417.041 241.371 414 237.97V236.44C416.928 239.962 420.59 242.801 424.731 244.758C428.872 246.715 433.39 247.743 437.97 247.77L498.16 187.58C498.949 186.791 499.886 186.164 500.917 185.737C501.949 185.31 503.054 185.09 504.17 185.09C505.286 185.09 506.392 185.31 507.423 185.737C508.454 186.164 509.391 186.791 510.18 187.58L542.17 219.56L617.16 144.58C617.949 143.791 618.886 143.164 619.917 142.737C620.949 142.31 622.054 142.09 623.17 142.09C624.286 142.09 625.392 142.31 626.423 142.737C627.454 143.164 628.391 143.791 629.18 144.58L673.17 188.56L816.68 45.06L817.67 45.03L818.13 45.02L818.67 45.01Z" fill="#408BA6"/>
<path d="M438.707 247.707L438 247L498.343 186.657C499.938 185.065 502.1 184.171 504.354 184.171C506.607 184.171 508.769 185.065 510.364 186.657L542.353 218.646L617.343 143.657C618.938 142.065 621.1 141.171 623.353 141.171C625.607 141.171 627.769 142.065 629.364 143.657L673.353 187.646L818 43L818.707 43.707L673.353 189.06L628.657 144.364C627.96 143.667 627.134 143.115 626.224 142.738C625.314 142.361 624.338 142.167 623.353 142.167C622.369 142.167 621.393 142.361 620.483 142.738C619.573 143.115 618.747 143.667 618.05 144.364L542.353 220.06L509.657 187.364C508.249 185.959 506.342 185.171 504.353 185.171C502.365 185.171 500.458 185.959 499.05 187.364L438.707 247.707Z" fill="#408BA6"/>
<path d="M786.5 249H438.5C429.883 248.99 421.623 245.563 415.53 239.47C409.437 233.377 406.01 225.117 406 216.5V37.5C406.01 28.8835 409.437 20.6226 415.53 14.5298C421.623 8.43698 429.883 5.00975 438.5 5H786.5C795.117 5.00975 803.377 8.43698 809.47 14.5298C815.563 20.6226 818.99 28.8835 819 37.5V216.5C818.99 225.117 815.563 233.377 809.47 239.47C803.377 245.563 795.117 248.99 786.5 249V249ZM438.5 6C430.149 6.00945 422.142 9.33122 416.237 15.2366C410.331 21.1419 407.009 29.1486 407 37.5V216.5C407.009 224.851 410.331 232.858 416.237 238.763C422.142 244.669 430.149 247.991 438.5 248H786.5C794.851 247.991 802.858 244.669 808.763 238.763C814.669 232.858 817.991 224.851 818 216.5V37.5C817.991 29.1486 814.669 21.1419 808.763 15.2366C802.858 9.33122 794.851 6.00945 786.5 6H438.5Z" fill="#3F3D56"/>
<path d="M229.531 463.956L190 463.954V463.454C190 461.434 190.398 459.433 191.171 457.566C191.944 455.699 193.078 454.003 194.507 452.574C195.935 451.146 197.632 450.012 199.498 449.239C201.365 448.466 203.366 448.068 205.386 448.068H205.387L229.531 448.069L229.531 463.956Z" fill="#2F2E41"/>
<path d="M292.331 448.069L316.474 448.068H316.475C318.496 448.068 320.497 448.466 322.364 449.239C324.23 450.012 325.927 451.146 327.355 452.574C328.784 454.003 329.918 455.699 330.691 457.566C331.464 459.433 331.862 461.434 331.862 463.454V463.954L292.331 463.956L292.331 448.069Z" fill="#2F2E41"/>
<path d="M295.78 446.011C294.757 446.008 293.765 445.658 292.967 445.018C292.169 444.378 291.612 443.486 291.386 442.489L260.999 309.95C260.933 309.613 260.749 309.31 260.481 309.096C260.213 308.881 259.878 308.768 259.535 308.776H259.528C259.183 308.769 258.847 308.885 258.58 309.103C258.313 309.32 258.131 309.626 258.067 309.964L230.163 441.61C229.945 442.617 229.39 443.519 228.59 444.168C227.789 444.816 226.791 445.172 225.761 445.176H212.468C211.854 445.176 211.248 445.051 210.685 444.808C210.121 444.565 209.614 444.209 209.193 443.763C208.773 443.316 208.448 442.789 208.238 442.212C208.029 441.636 207.939 441.023 207.976 440.411L217.877 273.555L221.861 272.376L221.935 272.377L300.193 273.062L316.861 439.734C316.919 440.328 316.858 440.928 316.682 441.499C316.506 442.07 316.218 442.6 315.835 443.058C315.451 443.516 314.981 443.893 314.45 444.168C313.92 444.442 313.34 444.608 312.744 444.656L296.14 445.996C296.02 446.006 295.899 446.011 295.78 446.011Z" fill="#2F2E41"/>
<path d="M263.462 119.647C277.027 119.647 288.023 108.651 288.023 95.086C288.023 81.5213 277.027 70.5249 263.462 70.5249C249.898 70.5249 238.901 81.5213 238.901 95.086C238.901 108.651 249.898 119.647 263.462 119.647Z" fill="#A0616A"/>
<path d="M248.416 291.849C244.107 291.902 239.816 291.298 235.689 290.058C232.018 288.951 228.613 287.105 225.683 284.633C222.753 282.16 220.36 279.115 218.651 275.683C218.109 274.65 217.989 273.448 218.316 272.329C221.024 263.083 234.114 215.028 225.762 176.826C224.584 171.519 224.486 166.029 225.474 160.683C226.463 155.337 228.518 150.245 231.518 145.711C234.447 141.213 238.252 137.35 242.707 134.354C247.161 131.358 252.174 129.29 257.445 128.273L257.445 128.272C258.83 128.001 260.223 127.78 261.584 127.612C267.411 126.895 273.324 127.474 278.9 129.309C284.477 131.144 289.579 134.188 293.842 138.225C298.231 142.341 301.656 147.376 303.872 152.971C306.087 158.565 307.038 164.58 306.657 170.585L300.239 273.589C300.194 274.361 299.95 275.109 299.53 275.758C299.109 276.407 298.527 276.936 297.841 277.292C290.448 281.166 268.241 291.849 248.416 291.849Z" fill="#CCCCCC"/>
<path d="M224.05 274.936C225.456 274.236 226.692 273.237 227.67 272.008C228.648 270.779 229.344 269.351 229.711 267.823C230.077 266.296 230.104 264.707 229.79 263.169C229.475 261.63 228.828 260.179 227.892 258.917L235.925 180.377H218.565L212.181 257.068C210.166 258.78 208.849 261.172 208.48 263.79C208.112 266.409 208.716 269.071 210.179 271.274C211.642 273.476 213.862 275.066 216.419 275.74C218.975 276.415 221.691 276.129 224.05 274.936V274.936Z" fill="#A0616A"/>
<path d="M237.153 143.195C240.543 143.876 243.569 145.769 245.665 148.519C247.761 151.269 248.785 154.688 248.544 158.137L246.151 192.38C246.109 192.98 245.932 193.564 245.634 194.086C245.335 194.609 244.922 195.057 244.426 195.398C243.93 195.739 243.363 195.963 242.768 196.055C242.174 196.146 241.566 196.102 240.99 195.926L212.166 187.102C211.641 186.942 211.155 186.675 210.738 186.318C210.32 185.961 209.981 185.523 209.741 185.029C209.5 184.536 209.364 183.998 209.34 183.449C209.317 182.901 209.406 182.354 209.603 181.841L221.07 152.036C222.276 148.901 224.552 146.294 227.495 144.676C230.439 143.058 233.86 142.534 237.153 143.195V143.195Z" fill="#CCCCCC"/>
<path d="M291.209 77.0068C288.658 70.5949 283.984 65.252 277.969 61.8699C271.954 58.4878 264.96 57.2712 258.156 58.4231L265.9 64.6809C256.279 65.0049 246.151 64.316 239.281 71.0603C241.468 70.9996 244.334 75.6776 246.521 75.6169C242.433 75.6978 238.725 78.5708 236.919 82.2401C235.246 86.0099 234.855 90.2239 235.805 94.2372C236.612 98.2464 242.773 107.639 244.431 111.377C244.146 101.607 263.38 78.3029 272.773 80.735C268.001 82.5055 263.86 85.6495 260.872 89.7703C267.262 86.5455 274.489 85.363 281.573 86.3832C283.191 86.7541 284.859 86.8475 286.508 86.6594C287.519 86.4595 288.461 86.0039 289.245 85.336C290.03 84.6681 290.63 83.8103 290.988 82.8445C291.346 81.8787 291.451 80.8372 291.292 79.8194C291.133 78.8016 290.716 77.8415 290.08 77.0309L291.209 77.0068Z" fill="#2F2E41"/>
<path d="M292.686 144.428C296.071 143.723 299.597 144.275 302.605 145.98C305.613 147.685 307.897 150.428 309.031 153.694L320.282 186.124C320.479 186.693 320.546 187.299 320.476 187.897C320.407 188.495 320.203 189.069 319.881 189.578C319.559 190.086 319.126 190.515 318.615 190.833C318.104 191.15 317.527 191.349 316.929 191.413L286.955 194.621C286.41 194.68 285.858 194.625 285.334 194.461C284.81 194.297 284.326 194.027 283.911 193.667C283.496 193.308 283.159 192.867 282.922 192.372C282.685 191.877 282.552 191.338 282.532 190.79L281.369 158.877C281.246 155.52 282.315 152.228 284.386 149.584C286.458 146.94 289.398 145.113 292.686 144.428V144.428Z" fill="#CCCCCC"/>
<g clip-path="url(#clip0)">
<path d="M210.021 293.779C170.417 290.759 123.188 260.005 125.593 228.338C127.997 196.672 173.739 167.193 213.343 170.214C252.947 173.234 275.744 232.413 273.339 264.08C270.935 295.746 249.625 296.8 210.021 293.779Z" fill="#F2F2F2"/>
<path d="M275.918 196.526H153.055V293.135H275.918V196.526Z" fill="#3F3D56"/>
<path d="M213.088 209.729H182.778C182.73 209.729 182.682 209.719 182.637 209.701C182.592 209.682 182.552 209.655 182.518 209.621C182.483 209.587 182.456 209.546 182.438 209.501C182.419 209.457 182.41 209.409 182.41 209.36C182.41 209.312 182.419 209.264 182.438 209.219C182.456 209.174 182.483 209.133 182.518 209.099C182.552 209.065 182.592 209.038 182.637 209.019C182.682 209.001 182.73 208.991 182.778 208.991H213.088C213.186 208.992 213.279 209.031 213.348 209.1C213.417 209.169 213.456 209.262 213.456 209.36C213.456 209.458 213.417 209.551 213.348 209.621C213.279 209.69 213.186 209.729 213.088 209.729V209.729Z" fill="#F2F2F2"/>
<path d="M246.268 213.784H198.595C198.498 213.784 198.404 213.745 198.335 213.676C198.266 213.607 198.228 213.513 198.228 213.415C198.228 213.318 198.266 213.224 198.335 213.155C198.404 213.085 198.498 213.047 198.595 213.047H246.268C246.316 213.047 246.364 213.056 246.409 213.075C246.453 213.093 246.494 213.12 246.528 213.155C246.562 213.189 246.589 213.229 246.608 213.274C246.626 213.319 246.636 213.367 246.636 213.415C246.636 213.464 246.626 213.512 246.608 213.556C246.589 213.601 246.562 213.642 246.528 213.676C246.494 213.71 246.453 213.737 246.409 213.756C246.364 213.774 246.316 213.784 246.268 213.784V213.784Z" fill="#F2F2F2"/>
<path d="M213.236 217.839H182.925C182.828 217.839 182.734 217.8 182.665 217.731C182.596 217.662 182.557 217.568 182.557 217.471C182.557 217.373 182.596 217.279 182.665 217.21C182.734 217.141 182.828 217.102 182.925 217.102H213.236C213.333 217.102 213.427 217.141 213.496 217.21C213.565 217.279 213.603 217.373 213.603 217.471C213.603 217.568 213.565 217.662 213.496 217.731C213.427 217.8 213.333 217.839 213.236 217.839V217.839Z" fill="#F2F2F2"/>
<path d="M246.268 217.913H215.958C215.86 217.913 215.766 217.874 215.698 217.805C215.629 217.736 215.59 217.642 215.59 217.544C215.59 217.446 215.629 217.353 215.698 217.284C215.766 217.214 215.86 217.176 215.958 217.176H246.268C246.365 217.176 246.459 217.214 246.528 217.284C246.597 217.353 246.636 217.446 246.636 217.544C246.636 217.642 246.597 217.736 246.528 217.805C246.459 217.874 246.365 217.913 246.268 217.913V217.913Z" fill="#F2F2F2"/>
<path d="M213.309 221.894H182.999C182.901 221.894 182.808 221.856 182.739 221.786C182.67 221.717 182.631 221.623 182.631 221.526C182.631 221.428 182.67 221.334 182.739 221.265C182.808 221.196 182.901 221.157 182.999 221.157H213.309C213.407 221.157 213.5 221.196 213.569 221.265C213.638 221.334 213.677 221.428 213.677 221.526C213.677 221.623 213.638 221.717 213.569 221.786C213.5 221.856 213.407 221.894 213.309 221.894V221.894Z" fill="#F2F2F2"/>
<path d="M213.383 225.95H183.072C182.975 225.95 182.881 225.911 182.812 225.842C182.743 225.772 182.705 225.679 182.705 225.581C182.705 225.483 182.743 225.389 182.812 225.32C182.881 225.251 182.975 225.212 183.072 225.212H213.383C213.48 225.212 213.574 225.251 213.643 225.32C213.712 225.389 213.751 225.483 213.751 225.581C213.751 225.679 213.712 225.772 213.643 225.842C213.574 225.911 213.48 225.95 213.383 225.95V225.95Z" fill="#F2F2F2"/>
<path d="M227.14 209.802H218.459C218.361 209.802 218.268 209.764 218.199 209.695C218.13 209.625 218.091 209.532 218.091 209.434C218.091 209.336 218.13 209.242 218.199 209.173C218.268 209.104 218.361 209.065 218.459 209.065H227.14C227.238 209.065 227.331 209.104 227.4 209.173C227.469 209.242 227.508 209.336 227.508 209.434C227.508 209.532 227.469 209.625 227.4 209.695C227.331 209.764 227.238 209.802 227.14 209.802V209.802Z" fill="#F2F2F2"/>
<path d="M227.14 221.894H218.459C218.361 221.894 218.268 221.856 218.199 221.786C218.13 221.717 218.091 221.623 218.091 221.526C218.091 221.428 218.13 221.334 218.199 221.265C218.268 221.196 218.361 221.157 218.459 221.157H227.14C227.238 221.157 227.331 221.196 227.4 221.265C227.469 221.334 227.508 221.428 227.508 221.526C227.508 221.623 227.469 221.717 227.4 221.786C227.331 221.856 227.238 221.894 227.14 221.894V221.894Z" fill="#F2F2F2"/>
<path d="M227.14 225.876H218.459C218.411 225.876 218.363 225.866 218.318 225.848C218.273 225.83 218.233 225.802 218.198 225.768C218.164 225.734 218.137 225.693 218.118 225.648C218.1 225.604 218.09 225.556 218.09 225.507C218.09 225.459 218.1 225.411 218.118 225.366C218.137 225.321 218.164 225.28 218.198 225.246C218.233 225.212 218.273 225.185 218.318 225.166C218.363 225.148 218.411 225.138 218.459 225.139H227.14C227.188 225.138 227.236 225.148 227.281 225.166C227.326 225.185 227.366 225.212 227.401 225.246C227.435 225.28 227.462 225.321 227.481 225.366C227.499 225.411 227.509 225.459 227.509 225.507C227.509 225.556 227.499 225.604 227.481 225.648C227.462 225.693 227.435 225.734 227.401 225.768C227.366 225.802 227.326 225.83 227.281 225.848C227.236 225.866 227.188 225.876 227.14 225.876V225.876Z" fill="#F2F2F2"/>
<path d="M241.707 225.876H233.026C232.928 225.876 232.835 225.837 232.766 225.768C232.697 225.698 232.658 225.605 232.658 225.507C232.658 225.41 232.697 225.316 232.766 225.247C232.835 225.178 232.928 225.139 233.026 225.139H241.707C241.755 225.138 241.803 225.148 241.848 225.166C241.892 225.185 241.933 225.212 241.967 225.246C242.001 225.28 242.029 225.321 242.047 225.366C242.066 225.411 242.075 225.459 242.075 225.507C242.075 225.556 242.066 225.604 242.047 225.648C242.029 225.693 242.001 225.734 241.967 225.768C241.933 225.802 241.892 225.83 241.848 225.848C241.803 225.866 241.755 225.876 241.707 225.876V225.876Z" fill="#F2F2F2"/>
<path d="M191.386 213.784H182.705C182.607 213.784 182.513 213.745 182.444 213.676C182.375 213.607 182.337 213.513 182.337 213.415C182.337 213.318 182.375 213.224 182.444 213.155C182.513 213.085 182.607 213.047 182.705 213.047H191.386C191.483 213.047 191.577 213.085 191.646 213.155C191.715 213.224 191.754 213.318 191.754 213.415C191.754 213.513 191.715 213.607 191.646 213.676C191.577 213.745 191.483 213.784 191.386 213.784V213.784Z" fill="#F2F2F2"/>
<path d="M213.125 269.451H182.815C182.717 269.451 182.624 269.412 182.555 269.343C182.486 269.274 182.447 269.18 182.447 269.082C182.447 268.984 182.486 268.891 182.555 268.822C182.624 268.752 182.717 268.714 182.815 268.714H213.125C213.223 268.714 213.316 268.752 213.385 268.822C213.454 268.891 213.493 268.984 213.493 269.082C213.493 269.18 213.454 269.274 213.385 269.343C213.316 269.412 213.223 269.451 213.125 269.451Z" fill="#F2F2F2"/>
<path d="M212.978 277.561H182.668C182.57 277.561 182.477 277.522 182.408 277.453C182.339 277.384 182.3 277.29 182.3 277.193C182.3 277.095 182.339 277.001 182.408 276.932C182.477 276.863 182.57 276.824 182.668 276.824H212.978C213.076 276.824 213.169 276.863 213.238 276.932C213.307 277.001 213.346 277.095 213.346 277.193C213.346 277.29 213.307 277.384 213.238 277.453C213.169 277.522 213.076 277.561 212.978 277.561Z" fill="#F2F2F2"/>
<path d="M213.052 281.616H182.741C182.693 281.617 182.645 281.607 182.6 281.589C182.556 281.57 182.515 281.543 182.481 281.509C182.447 281.475 182.419 281.434 182.401 281.389C182.382 281.344 182.373 281.296 182.373 281.248C182.373 281.199 182.382 281.151 182.401 281.107C182.419 281.062 182.447 281.021 182.481 280.987C182.515 280.953 182.556 280.925 182.6 280.907C182.645 280.889 182.693 280.879 182.741 280.879H213.052C213.1 280.879 213.148 280.889 213.193 280.907C213.237 280.925 213.278 280.953 213.312 280.987C213.347 281.021 213.374 281.062 213.392 281.107C213.411 281.151 213.42 281.199 213.42 281.248C213.42 281.296 213.411 281.344 213.392 281.389C213.374 281.434 213.347 281.475 213.312 281.509C213.278 281.543 213.237 281.57 213.193 281.589C213.148 281.607 213.1 281.617 213.052 281.616V281.616Z" fill="#F2F2F2"/>
<path d="M226 277.635H217.319C217.221 277.635 217.128 277.596 217.059 277.527C216.99 277.458 216.951 277.364 216.951 277.266C216.951 277.169 216.99 277.075 217.059 277.006C217.128 276.937 217.221 276.898 217.319 276.898H226C226.097 276.898 226.191 276.937 226.26 277.006C226.329 277.075 226.368 277.169 226.368 277.266C226.368 277.364 226.329 277.458 226.26 277.527C226.191 277.596 226.097 277.635 226 277.635Z" fill="#F2F2F2"/>
<path d="M226 281.616H217.319C217.221 281.616 217.128 281.578 217.059 281.508C216.99 281.439 216.951 281.346 216.951 281.248C216.951 281.15 216.99 281.056 217.059 280.987C217.128 280.918 217.221 280.879 217.319 280.879H226C226.097 280.879 226.191 280.918 226.26 280.987C226.329 281.056 226.368 281.15 226.368 281.248C226.368 281.346 226.329 281.439 226.26 281.508C226.191 281.578 226.097 281.616 226 281.616V281.616Z" fill="#F2F2F2"/>
<path d="M240.566 277.635H231.885C231.788 277.635 231.694 277.596 231.625 277.527C231.556 277.458 231.517 277.364 231.517 277.266C231.517 277.169 231.556 277.075 231.625 277.006C231.694 276.937 231.788 276.898 231.885 276.898H240.566C240.664 276.898 240.757 276.937 240.826 277.006C240.895 277.075 240.934 277.169 240.934 277.266C240.934 277.364 240.895 277.458 240.826 277.527C240.757 277.596 240.664 277.635 240.566 277.635V277.635Z" fill="#F2F2F2"/>
<path d="M246.305 273.506H198.632C198.535 273.506 198.441 273.467 198.372 273.398C198.303 273.329 198.264 273.235 198.264 273.137C198.264 273.04 198.303 272.946 198.372 272.877C198.441 272.808 198.535 272.769 198.632 272.769H246.305C246.402 272.769 246.496 272.808 246.565 272.877C246.634 272.946 246.673 273.04 246.673 273.137C246.673 273.235 246.634 273.329 246.565 273.398C246.496 273.467 246.402 273.506 246.305 273.506V273.506Z" fill="#F2F2F2"/>
<path d="M191.422 273.506H182.741C182.644 273.506 182.55 273.467 182.481 273.398C182.412 273.329 182.374 273.235 182.374 273.137C182.374 273.04 182.412 272.946 182.481 272.877C182.55 272.808 182.644 272.769 182.741 272.769H191.422C191.52 272.769 191.614 272.808 191.683 272.877C191.752 272.946 191.79 273.04 191.79 273.137C191.79 273.235 191.752 273.329 191.683 273.398C191.614 273.467 191.52 273.506 191.422 273.506V273.506Z" fill="#F2F2F2"/>
<path d="M246.305 285.745H198.632C198.584 285.746 198.536 285.736 198.491 285.718C198.446 285.699 198.406 285.672 198.372 285.638C198.337 285.603 198.31 285.563 198.292 285.518C198.273 285.473 198.264 285.425 198.264 285.377C198.264 285.328 198.273 285.28 198.292 285.235C198.31 285.191 198.337 285.15 198.372 285.116C198.406 285.082 198.446 285.054 198.491 285.036C198.536 285.017 198.584 285.008 198.632 285.008H246.305C246.402 285.008 246.496 285.047 246.565 285.116C246.634 285.185 246.673 285.279 246.673 285.377C246.673 285.475 246.634 285.568 246.565 285.637C246.496 285.707 246.402 285.745 246.305 285.745V285.745Z" fill="#F2F2F2"/>
<path d="M191.422 285.745H182.741C182.693 285.746 182.645 285.736 182.6 285.718C182.556 285.699 182.515 285.672 182.481 285.638C182.447 285.603 182.419 285.563 182.401 285.518C182.382 285.473 182.373 285.425 182.373 285.377C182.373 285.328 182.382 285.28 182.401 285.235C182.419 285.191 182.447 285.15 182.481 285.116C182.515 285.082 182.556 285.054 182.6 285.036C182.645 285.017 182.693 285.008 182.741 285.008H191.422C191.471 285.008 191.519 285.017 191.563 285.036C191.608 285.054 191.649 285.082 191.683 285.116C191.717 285.15 191.744 285.191 191.763 285.235C191.782 285.28 191.791 285.328 191.791 285.377C191.791 285.425 191.782 285.473 191.763 285.518C191.744 285.563 191.717 285.603 191.683 285.638C191.649 285.672 191.608 285.699 191.563 285.718C191.519 285.736 191.471 285.746 191.422 285.745Z" fill="#F2F2F2"/>
<path d="M205.805 235.682L194.034 247.332L205.805 258.981L208.454 256.327L199.552 247.405L208.527 238.41L205.805 235.682Z" fill="#6C63FF"/>
<path d="M223.167 235.682L234.938 247.332L223.167 258.981L220.519 256.327L229.421 247.405L220.445 238.41L223.167 235.682Z" fill="#6C63FF"/>
<path d="M156.322 200.456C157.134 200.456 157.793 199.796 157.793 198.982C157.793 198.169 157.134 197.509 156.322 197.509C155.51 197.509 154.852 198.169 154.852 198.982C154.852 199.796 155.51 200.456 156.322 200.456Z" fill="#6C63FF"/>
<path d="M160.243 200.456C161.055 200.456 161.714 199.796 161.714 198.982C161.714 198.169 161.055 197.509 160.243 197.509C159.431 197.509 158.773 198.169 158.773 198.982C158.773 199.796 159.431 200.456 160.243 200.456Z" fill="#6C63FF"/>
<path d="M164.165 200.456C164.977 200.456 165.635 199.796 165.635 198.982C165.635 198.169 164.977 197.509 164.165 197.509C163.352 197.509 162.694 198.169 162.694 198.982C162.694 199.796 163.352 200.456 164.165 200.456Z" fill="#6C63FF"/>
<path opacity="0.1" d="M275.918 201.439H153.055V201.93H275.918V201.439Z" fill="black"/>
</g>
<path d="M260.431 231.367C260.981 231.43 261.525 231.537 262.058 231.686L299.704 199.402L297.503 187.556L314.946 181.899L320.879 202.49C321.359 204.154 321.285 205.928 320.671 207.546C320.056 209.164 318.933 210.54 317.47 211.465L269.792 241.636C269.826 243.767 269.21 245.858 268.027 247.631C266.843 249.404 265.148 250.774 263.166 251.56C261.185 252.346 259.011 252.51 256.934 252.03C254.857 251.55 252.975 250.449 251.539 248.874C250.103 247.299 249.181 245.324 248.895 243.211C248.608 241.099 248.972 238.949 249.938 237.049C250.903 235.148 252.424 233.587 254.298 232.572C256.173 231.557 258.312 231.136 260.431 231.367V231.367Z" fill="#A0616A"/>
<path d="M150.548 59.1442H17.7856C17.5772 59.1442 17.3774 59.0614 17.2301 58.9141C17.0827 58.7668 17 58.567 17 58.3586C17 58.1503 17.0827 57.9505 17.2301 57.8031C17.3774 57.6558 17.5772 57.5731 17.7856 57.5731H150.548C150.756 57.5731 150.956 57.6558 151.103 57.8031C151.25 57.9505 151.333 58.1503 151.333 58.3586C151.333 58.567 151.25 58.7668 151.103 58.9141C150.956 59.0614 150.756 59.1442 150.548 59.1442Z" fill="#3F3D56"/>
<path d="M107.341 46.2846H62.5635C61.7301 46.2846 60.9309 45.9535 60.3416 45.3642C59.7523 44.775 59.4212 43.9757 59.4212 43.1423C59.4212 42.3089 59.7523 41.5097 60.3416 40.9204C60.9309 40.3311 61.7301 40 62.5635 40H107.341C108.175 40 108.974 40.3311 109.563 40.9204C110.152 41.5097 110.483 42.3089 110.483 43.1423C110.483 43.9757 110.152 44.775 109.563 45.3642C108.974 45.9535 108.175 46.2846 107.341 46.2846Z" fill="#CCCCCC"/>
<path d="M60.4939 195.461C60.1737 195.056 59.9502 194.584 59.8403 194.079C59.7304 193.575 59.737 193.052 59.8596 192.55C62.7895 180.278 62.7894 167.488 59.8594 155.216C59.7369 154.714 59.7304 154.192 59.8403 153.687C59.9503 153.183 60.1738 152.71 60.4939 152.305C60.8072 151.906 61.2074 151.583 61.6642 151.362C62.1209 151.141 62.6222 151.027 63.1297 151.028H94.452C95.2524 151.03 96.0262 151.315 96.6358 151.834C97.2453 152.353 97.651 153.071 97.7805 153.861C99.8237 167.131 99.8237 180.636 97.7805 193.906C97.651 194.696 97.2453 195.414 96.6358 195.932C96.0262 196.451 95.2524 196.737 94.452 196.738H63.1297C62.6222 196.74 62.121 196.626 61.6642 196.404C61.2075 196.183 60.8072 195.86 60.4939 195.461V195.461Z" fill="#E6E6E6"/>
<path d="M103.253 141.586C101.21 128.316 101.21 114.811 103.253 101.541C103.382 100.751 103.788 100.033 104.397 99.5145C105.007 98.9958 105.781 98.7102 106.581 98.7087H137.904C138.411 98.7071 138.912 98.8214 139.369 99.0427C139.826 99.2641 140.226 99.5868 140.539 99.9863C140.86 100.391 141.083 100.864 141.193 101.368C141.303 101.872 141.296 102.395 141.174 102.896C138.244 115.169 138.244 127.959 141.173 140.231C141.296 140.732 141.303 141.255 141.193 141.759C141.083 142.264 140.86 142.736 140.539 143.141C140.226 143.541 139.826 143.863 139.369 144.085C138.912 144.306 138.411 144.42 137.904 144.419H106.581C105.781 144.417 105.007 144.132 104.397 143.613C103.788 143.094 103.382 142.376 103.253 141.586V141.586Z" fill="#408BA6"/>
<path d="M32.5032 129.718C32.1778 129.306 31.9506 128.826 31.8389 128.313C31.7272 127.8 31.7339 127.269 31.8585 126.759C34.8368 114.285 34.8367 101.285 31.8583 88.8113C31.7338 88.3016 31.7271 87.7702 31.8389 87.2576C31.9507 86.7449 32.1779 86.2645 32.5033 85.8529C32.8217 85.447 33.2285 85.1191 33.6928 84.8942C34.1571 84.6693 34.6665 84.5532 35.1823 84.5548H67.0195C67.833 84.5564 68.6196 84.8466 69.2392 85.3738C69.8587 85.9011 70.271 86.6311 70.4027 87.4339C72.4795 100.922 72.4795 114.649 70.4027 128.137C70.271 128.94 69.8587 129.67 69.2392 130.197C68.6196 130.724 67.833 131.014 67.0195 131.016H35.1823C34.6665 131.017 34.157 130.901 33.6927 130.676C33.2285 130.452 32.8217 130.124 32.5032 129.718V129.718Z" fill="#FF6584"/>
<path d="M60.876 101.698H44.1045C43.4797 101.697 42.8807 101.448 42.4389 101.007C41.997 100.565 41.7485 99.9656 41.7478 99.3408V98.34C41.7485 97.7151 41.997 97.1161 42.4389 96.6743C42.8807 96.2324 43.4797 95.9839 44.1045 95.9832H60.876C61.5008 95.9839 62.0999 96.2324 62.5417 96.6743C62.9835 97.1161 63.232 97.7151 63.2327 98.34V99.3408C63.232 99.9656 62.9835 100.565 62.5417 101.007C62.0999 101.448 61.5008 101.697 60.876 101.698Z" fill="white"/>
<path d="M60.876 111.554H44.1045C43.4797 111.554 42.8807 111.305 42.4389 110.863C41.997 110.421 41.7485 109.822 41.7478 109.198V108.197C41.7485 107.572 41.997 106.973 42.4389 106.531C42.8807 106.089 43.4797 105.841 44.1045 105.84H60.876C61.5008 105.841 62.0999 106.089 62.5417 106.531C62.9835 106.973 63.232 107.572 63.2327 108.197V109.198C63.232 109.822 62.9835 110.421 62.5417 110.863C62.0999 111.305 61.5008 111.554 60.876 111.554V111.554Z" fill="white"/>
<path d="M88.0095 166.289H71.5724C70.9476 166.288 70.3486 166.039 69.9067 165.598C69.4649 165.156 69.2164 164.557 69.2157 163.932V163.011C69.2164 162.386 69.4649 161.787 69.9067 161.345C70.3486 160.904 70.9476 160.655 71.5724 160.654H88.0095C88.6343 160.655 89.2334 160.904 89.6752 161.345C90.117 161.787 90.3655 162.386 90.3662 163.011V163.932C90.3655 164.557 90.117 165.156 89.6752 165.598C89.2334 166.039 88.6343 166.288 88.0095 166.289V166.289Z" fill="white"/>
<path d="M88.0095 177.926H71.5724C70.9476 177.925 70.3486 177.677 69.9067 177.235C69.4649 176.793 69.2164 176.194 69.2157 175.569V174.648C69.2164 174.023 69.4649 173.424 69.9067 172.983C70.3486 172.541 70.9476 172.292 71.5724 172.292H88.0095C88.6343 172.292 89.2334 172.541 89.6752 172.983C90.117 173.424 90.3655 174.023 90.3662 174.648V175.569C90.3655 176.194 90.117 176.793 89.6752 177.235C89.2334 177.677 88.6343 177.925 88.0095 177.926V177.926Z" fill="white"/>
<path d="M88.0095 189.563H71.5724C70.9476 189.562 70.3486 189.314 69.9067 188.872C69.4649 188.43 69.2164 187.831 69.2157 187.206V186.285C69.2164 185.661 69.4649 185.061 69.9067 184.62C70.3486 184.178 70.9476 183.929 71.5724 183.929H88.0095C88.6343 183.929 89.2334 184.178 89.6752 184.62C90.117 185.061 90.3655 185.661 90.3662 186.285V187.206C90.3655 187.831 90.117 188.43 89.6752 188.872C89.2334 189.314 88.6343 189.562 88.0095 189.563V189.563Z" fill="white"/>
<path d="M128.837 119.064H112.4C111.775 119.063 111.176 118.815 110.734 118.373C110.292 117.931 110.044 117.332 110.043 116.707V115.786C110.044 115.162 110.292 114.563 110.734 114.121C111.176 113.679 111.775 113.43 112.4 113.43H128.837C129.462 113.43 130.061 113.679 130.503 114.121C130.945 114.563 131.193 115.162 131.194 115.786V116.707C131.193 117.332 130.945 117.931 130.503 118.373C130.061 118.815 129.462 119.063 128.837 119.064Z" fill="white"/>
<path d="M18.8139 239.993C16.7709 226.723 16.7709 213.218 18.8139 199.948C18.9435 199.158 19.3492 198.44 19.9587 197.921C20.5683 197.402 21.3421 197.117 22.1424 197.115H53.4654C53.973 197.114 54.4742 197.228 54.931 197.449C55.3878 197.671 55.788 197.993 56.1012 198.393C56.4213 198.798 56.6448 199.27 56.7547 199.775C56.8646 200.279 56.858 200.802 56.7355 201.303C53.8054 213.575 53.8053 226.365 56.7353 238.638C56.858 239.139 56.8646 239.662 56.7547 240.166C56.6449 240.67 56.4213 241.143 56.1012 241.548C55.788 241.947 55.3878 242.27 54.931 242.491C54.4742 242.713 53.973 242.827 53.4654 242.825H22.1424C21.3421 242.824 20.5683 242.538 19.9587 242.02C19.3492 241.501 18.9435 240.783 18.8139 239.993V239.993Z" fill="#408BA6"/>
<path d="M43.8262 216.501H27.3893C26.7645 216.5 26.1655 216.251 25.7236 215.81C25.2818 215.368 25.0333 214.769 25.0326 214.144V213.223C25.0333 212.598 25.2818 211.999 25.7236 211.558C26.1655 211.116 26.7645 210.867 27.3893 210.867H43.8262C44.451 210.867 45.05 211.116 45.4918 211.558C45.9337 211.999 46.1822 212.598 46.1829 213.223V214.144C46.1822 214.769 45.9337 215.368 45.4918 215.81C45.05 216.251 44.451 216.5 43.8262 216.501V216.501Z" fill="white"/>
<path d="M43.8262 226.198H27.3893C26.7645 226.198 26.1655 225.949 25.7236 225.507C25.2818 225.065 25.0333 224.466 25.0326 223.842V222.921C25.0333 222.296 25.2818 221.697 25.7236 221.255C26.1655 220.813 26.7645 220.565 27.3893 220.564H43.8262C44.451 220.565 45.05 220.813 45.4918 221.255C45.9337 221.697 46.1822 222.296 46.1829 222.921V223.842C46.1822 224.466 45.9337 225.065 45.4918 225.507C45.05 225.949 44.451 226.198 43.8262 226.198V226.198Z" fill="white"/>
<defs>
<clipPath id="clip0">
<rect width="184" height="140" fill="white" transform="translate(121 170)"/>
</clipPath>
</defs>
</svg>
